<?xml version="1.0" encoding="utf-8"?>
<!-- Generator: Adobe Illustrator 18.1.1, SVG Export Plug-In . SVG Version: 6.00 Build 0)  -->
<svg version="1.1" id="Layer_1" xmlns="http://www.w3.org/2000/svg" xmlns:xlink="http://www.w3.org/1999/xlink" x="0px" y="0px"
	 viewBox="0 0 542.8 523.6" enable-background="new 0 0 542.8 523.6" xml:space="preserve">
<circle fill="#FFFFFF" cx="271.4" cy="163.1" r="158.9"/>
<path fill="#303F35" d="M271.4,0c-90,0-163.1,73.2-163.1,163.1s73.2,163.1,163.1,163.1c90,0,163.1-73.2,163.1-163.1S361.4,0,271.4,0
	z M271.4,317.5c-85.1,0-154.3-69.2-154.3-154.3S186.3,8.8,271.4,8.8S425.8,78,425.8,163.1S356.5,317.5,271.4,317.5z"/>
<g>
	<path fill="#4B5E51" d="M343,290.6c-13-3-20.7-11.8-29-20.2c0,1.5,0.3,2.6,0.8,3.6c4.9,10.6,13.6,16.4,23.3,21
		c3.7-1.9,7.4-3.9,10.9-6c-3-3.9-6.1-7.8-9.2-11.8C340.8,281.4,341.8,285.7,343,290.6z"/>
	<path fill="#4B5E51" d="M417.8,138.2C405.9,68.7,345.4,15.7,272.5,15.7c-81.4,0-147.4,66-147.4,147.4s66,147.4,147.4,147.4
		c19.2,0,37.5-3.7,54.3-10.3c-16.4-16.2-28.5-36.2-34.2-62.4c5.6,1,10.1,1.2,14.2,2.6c5.5,1.9,10.8,4.4,16,7.1
		c2.4,1.3,4.3,3.6,6.1,5.7c8.9,10.5,17.4,21.5,26.7,31.8c2.7-1.8,5.3-3.7,7.8-5.7c-11.3-9.7-21.5-20.4-29.4-33.6
		c-6.6-11.1-13.4-22.1-20.2-33c-4.3-6.8-9.2-13.1-15.6-15.5c-2.1,2.5-3.1,4.5-4.8,5.6c-22.3,14.6-45.7,18.6-70.6,7.1
		c-1.1-0.5-2.3-0.8-3.5-1c-0.4-0.1-0.9,0.2-2.2,0.5c16.2,11.2,33.3,15,51.7,10.4c5.5-1.4,8.9-0.9,12.7,3.2c3.2,3.6,7.3,6.4,11.4,9.9
		c-33.4,11.9-65.1,7.2-97.2-6.1c10.1-2.2,19.3-4.3,28.4-6.3c-0.1-0.5-0.1-1-0.2-1.5c-5.7,0.6-11.4,1.6-17.1,1.9
		c-10.4,0.5-20.9,1-31.4,0.7c-10-0.3-12.5-2.6-11.2-12.6c1.7-12.4,4.3-25,8.5-36.8c9.2-25.8,24.2-48.1,43-68.1
		c6.5-6.9,11.9-14.8,17.9-22.1c1.4-1.7,3-3.2,4.8-4.3c8.8-5.5,18-10.6,26.6-16.4c6.6-4.5,13.1-5.8,20.7-3.1
		c4.5,1.7,9.4,2.6,13.9,4.2c1.8,0.7,3.9,2.1,4.6,3.7c3.5,7.5,6.7,15.1,9.7,22.8c1.6,4.1-5.8,11.9-10.9,11.6
		c-7-0.3-13.9-3.1-21.1-0.6c-1.3,0.4-3.1-0.8-5-1.3c11.8-10.3,12.4-12.3,6.1-22.1c2.5,6.5,1,12.6-3.7,16.9
		c-2.9,2.7-7.6,3.5-11.5,5.1c-0.7-0.9-1.3-1.7-2-2.6c2-3.8,4.1-7.6,6.3-11.7c-0.5-0.3-1.5-1-2.5-1.7c-4,16.2-15.6,22.2-30.7,16.6
		c3.1,2.1,6.1,4.2,9.5,6.6c-3.1,4.6-6.4,9-9.3,13.8c-2.7,4.5-5,9.3-7.9,14.7c-1.1-5.1-1.9-9.2-2.8-13.3c-0.2,0-0.4,0.1-0.6,0.1
		c0,10.9,0,21.8,0,33.2c2.3-6.3,4.4-12.3,6.5-18.2c0.4,0.1,0.9,0.2,1.3,0.4c0.7,6.4,1.8,12.8,2,19.2c0.1,2.1-2.1,4.5-3.7,6.4
		c-5.5,6.9-11.2,13.6-16.8,20.4c0.7,0.7,1.5,1.3,2.2,2c2-2.1,4.1-4.1,6.1-6.2c2-2.1,4-4.3,6-6.4c10.3-10.4,21.5-19,37.2-19.4
		c12-0.3,22.3,3.9,32.1,11.2c-2.5,5-5,9.8-7.5,14.6c0.5,0.4,1,0.8,1.5,1.1c1.5-1.6,3-3.2,4.3-4.9c3.7-4.8,7.1-9.9,10.9-14.6
		c25-30.7,61.3-20.9,81,1.6c0.8,0.9,1.3,1.9,3.2,2.4c-0.5-2.9-1-5.8-1.5-9.3C400.6,149.4,408.6,144.2,417.8,138.2z M280.9,215.9
		c6.8-4.2,13-8,20-12.3c9.5,8.1,12.9,20.2,18.7,32.3C303.7,233.1,292.4,225.1,280.9,215.9z M271.4,250.3c1.9,0,3.5,1.6,3.5,3.5
		c0,1.9-1.6,3.5-3.5,3.5s-3.5-1.6-3.5-3.5C268,251.9,269.5,250.3,271.4,250.3z M245.2,250.3c0,0,1.6,22,18.3,21.7
		c-16.4,0-18.3,21.7-18.3,21.7s-1.9-21.7-18.3-21.7C243.3,272.1,245.2,250.3,245.2,250.3z M208.2,253.8c2.6,0,4.6,2.1,4.6,4.6
		s-2.1,4.6-4.6,4.6c-2.6,0-4.6-2.1-4.6-4.6S205.7,253.8,208.2,253.8z M185.6,260.7c1.3,0,2.3,1,2.3,2.3c0,1.3-1,2.3-2.3,2.3
		s-2.3-1-2.3-2.3C183.4,261.7,184.4,260.7,185.6,260.7z M145.3,182.1v0.2c0,0-0.7-8.3-7.2-8.3c6.5,0,7.2-8.1,7.2-8.1
		s0.7,8.3,7.2,8.1C146,174,145.3,182.1,145.3,182.1z M159.5,161c-1.3,0-2.3-1-2.3-2.3s1.1-2.3,2.3-2.3c1.3,0,2.3,1,2.3,2.3
		S160.8,161,159.5,161z M175.5,126.9v0.2c0,0-1.9-21.7-18.3-21.7c16.4,0,18.3-21.5,18.3-21.5s1.9,21.5,18.3,21.5
		C177.4,105.4,175.5,126.9,175.5,126.9z M231.2,67.3v0.2c0,0-0.7-8.3-7.2-8.3c6.5,0,7.2-8.3,7.2-8.3s0.7,8.3,7.2,8.1
		C231.9,59,231.2,67.3,231.2,67.3z M263.5,135.2v0.2c0,0-0.2-4.4-3.7-4.4c3.4,0,3.9-3.9,3.9-3.9s0.5,3.9,3.5,3.9
		C264,131,263.5,135.2,263.5,135.2z M258.6,105.6c6.1-7.3,6.7-7.4,19.4-2.9C276.4,110.9,270.2,111.8,258.6,105.6z M290.1,110.1
		c-1.5,1.4-3,2.7-4.5,4c-1.7-2.5-4-4.7-4.9-7.5c-0.3-0.7,3.5-4.1,5.3-4.1c5.7,0.2,11.4,1.5,17.8,2.5
		C301.2,110.9,293.2,113.3,290.1,110.1z M306.7,138.9c-1.9,0-3.5-1.6-3.5-3.5c0-1.9,1.6-3.5,3.5-3.5c1.9,0,3.5,1.6,3.5,3.5
		C310.2,137.3,308.6,138.9,306.7,138.9z M314,44.7c-1.9,0-3.5-1.6-3.5-3.5c0.1-2,1.6-3.5,3.5-3.5s3.5,1.6,3.5,3.5
		C317.5,43.1,315.9,44.7,314,44.7z M352.6,122.2v0.9c0,0-2.1-23.6-21.1-23.6c19.2,0,21.3-21.7,21.3-21.7s2.1,22.2,20.8,22.4
		C354.7,100.2,352.6,122.2,352.6,122.2z M383.1,141.2c-1.3,0-2.3-1-2.3-2.3c0-1.3,1-2.3,2.3-2.3s2.3,1,2.3,2.3
		C385.4,140.2,384.3,141.2,383.1,141.2z"/>
</g>
<path fill="#303F35" d="M542.6,442.5c-0.9-3.7-3.8-8.2-5.3-6c-2.7,4-5.2,7.3-7.4,9.9c-2.2,2.6-4.2,4.8-6,6.6
	c-1.8,1.7-3.4,3.1-4.9,4.2c-1.5,1-2.8,1.9-4.1,2.6c1.1-6.5,2.1-12.7,3-18.4c0.4-2.4,0.7-4.9,1.1-7.4c0.4-2.5,0.7-4.9,1-7.2
	c0.3-2.2,0.5-4.3,0.7-6.1c0.2-1.8,0.2-3.3,0.2-4.4c0-1.3-0.1-2.3-0.3-3.1c-0.2-0.7-0.6-1.3-1-1.7c-0.4-0.4-0.9-0.7-1.4-0.8
	c-0.5-0.1-1.1-0.2-1.7-0.2c-0.5,0-0.9,0-1.4,0c-0.5,0-0.9,0-1.4,0c-0.5,0-1.1,0-1.6-0.1c-0.5-0.1-1-0.2-1.5-0.4
	c-0.5-0.2-0.9-0.5-1.2-1c-0.3-0.5-0.7-0.9-1-1.4c-0.4-0.5-0.8-0.9-1.3-1.3c-0.5-0.4-1.3-0.6-2.2-0.6c-2.9,0-5.7,0.6-8.5,1.8
	c-2.8,1.2-5.4,2.9-7.9,5c-2.5,2.1-4.8,4.5-6.9,7.3c-2.1,2.8-3.9,5.8-5.5,8.9c-1.5,3.1-2.7,6.4-3.6,9.6c-0.8,3-1.2,5.9-1.3,8.8
	c-0.1,0.1-0.2,0.2-0.3,0.3c-1,0.8-1.9,1.5-2.9,2.1c-0.9,0.6-1.8,1.1-2.6,1.5c-0.8,0.4-1.5,0.6-2.2,0.6c-1.4,0-2.4-0.8-3-2.5
	c-0.6-1.7-1-3.8-1-6.4c0-1.5,0.1-3.2,0.3-5.1c0.2-1.8,0.4-3.7,0.7-5.6c0.3-1.9,0.6-3.7,1-5.5c0.4-1.8,0.7-3.4,1-4.9
	c0.3-1.5,0.5-2.8,0.7-3.9s0.3-1.9,0.3-2.3c0-3.1-0.6-5.5-1.8-7.2c-1.2-1.7-2.9-2.6-5-2.6c-2.1,0-4,0.4-5.7,1.2
	c-1.7,0.8-3.2,2.4-4.6,4.6c-0.3,0.5-0.7,1.3-1.3,2.3c-0.6,1-1.2,2.2-1.9,3.6c-0.7,1.4-1.5,2.8-2.3,4.2c-0.8,1.5-1.6,2.9-2.3,4.2
	c-0.7,1.3-1.3,2.5-1.9,3.5c-0.5,1-0.9,1.8-1.2,2.2h-1.2c0-0.3,0.1-0.9,0.2-1.7c0.1-0.9,0.3-1.9,0.5-3c0.2-1.1,0.4-2.4,0.6-3.7
	c0.2-1.4,0.4-2.7,0.6-3.9c0.2-1.3,0.3-2.4,0.5-3.5c0.1-1.1,0.2-1.9,0.2-2.5c0-2.3-0.4-4.1-1.3-5.5c-0.9-1.4-2.4-2.1-4.7-2.1
	s-4,0.6-5.3,1.9c-1.3,1.3-2.2,2.9-2.7,4.8c-0.6,2.5-1.2,5.4-1.8,8.9c-0.1,0.4-0.1,0.7-0.2,1.1c-0.9-1-1.7-1.9-2.7-2.9
	c-2.6-2.7-5.4-5-8.4-7.1c-3-2.1-6.3-3.7-9.7-4.9c-3.5-1.2-7.2-1.8-11.1-1.8c-4.6,0-8.8,0.8-12.5,2.5c-3.7,1.7-6.8,4-9.4,6.9
	c-2.6,2.9-4.5,6.4-5.9,10.4c-0.8,2.3-1.3,4.6-1.7,7.1c-1.8,0.7-3.6,1.1-5.3,1.1c-0.7,0-1.3-0.1-1.9-0.4c-0.6-0.3-1.1-0.7-1.6-1.3
	c-0.5-0.6-0.9-1.4-1.2-2.4c-0.3-1-0.4-2.2-0.4-3.7c0-0.9,0.1-2,0.3-3.3c0.2-1.3,0.4-2.7,0.7-4.1c0.2-1.4,0.5-2.7,0.7-4
	c0.2-1.3,0.3-2.3,0.3-3c0-0.9-0.2-1.7-0.5-2.5c-0.3-0.7-0.8-1.3-1.3-1.8c-0.6-0.5-1.2-0.9-2-1.2c-0.8-0.3-1.5-0.4-2.3-0.4
	c-2.3,0-4.3,0.6-6.1,1.8c-1.7,1.2-3.3,2.7-4.7,4.5c-1.4,1.8-2.6,3.7-3.6,5.8s-2,3.9-2.8,5.6h-0.7c-0.1-2.1-0.1-4.3-0.1-6.5
	c0-2.2,0-4.1,0-5.6c0-1.3,0-2.3-0.1-3.1c-0.1-0.7-0.2-1.3-0.5-1.7c-0.3-0.4-0.7-0.6-1.3-0.7c-0.6-0.1-1.4-0.2-2.5-0.2
	c-1,0-1.8,0.1-2.4,0.2c-0.6,0.1-1.2,0.3-1.6,0.6c-0.4,0.3-0.8,0.7-1.2,1.3c-0.3,0.5-0.7,1.3-1,2.2c-0.5,1.4-1.1,3.1-1.6,5.2
	c-0.5,2.1-1.1,4.5-1.6,7c-0.5,2.5-1.1,5.2-1.5,8c-0.3,2-0.6,4-0.9,5.9c-1.1,1.2-2.4,2.4-3.7,3.6c-1.5,1.3-3.2,2.6-4.8,3.7
	c-1.7,1.2-3.4,2.3-5.1,3.3s-3.4,1.9-4.9,2.6c-1.6,0.7-3,1.3-4.3,1.7c-1.3,0.4-2.4,0.6-3.3,0.6c-1.4,0-2.7-0.2-3.8-0.7
	c-1.1-0.4-2.1-1.1-2.9-2.1s-1.4-2.2-1.8-3.8c-0.4-1.5-0.6-3.4-0.6-5.7c0-0.9,0-1.8,0-2.9c0-1,0.1-2.1,0.1-3.2c0-1.1,0.1-2.3,0.1-3.4
	c0-1.1,0.1-2.3,0.1-3.3c0.1-2.5,0.3-5,0.4-7.6c1-1.3,2.2-2.7,3.4-4.3c1.2-1.6,2.4-3.2,3.7-4.9h24c1,0,1.9-0.5,2.7-1.4
	c0.8-0.9,1.2-2.1,1.2-3.6c0-1.2-0.2-2.2-0.6-3c-0.4-0.8-1-1.2-1.8-1.2c-0.7,0-1.6-0.1-2.7-0.1c-1.1,0-2.2-0.1-3.5-0.1
	c-1.2,0-2.5-0.1-3.9-0.2c-1.3-0.1-2.6-0.1-3.7-0.2c-1.1,0-2.2-0.1-3-0.1c-0.9,0-1.5-0.1-1.9-0.1c1.5-2.4,2.9-4.8,4.3-7.2
	c1.4-2.4,2.5-4.8,3.5-7.2c1-2.4,1.8-4.7,2.4-6.9c0.6-2.3,0.9-4.4,0.9-6.5c0-2.4-0.3-4.7-0.8-7c-0.6-2.2-1.4-4.2-2.4-5.8
	c-1-1.7-2.3-3-3.8-4c-1.5-1-3.1-1.5-4.9-1.5c-2.8,0-5.5,1.2-8,3.7c-2.5,2.5-4.9,5.8-7,9.9c-2.1,4.1-4.1,8.8-5.8,14.1
	c-1.7,5.3-3.2,10.7-4.3,16.3c-0.4,0.1-1.2,0.1-2.3,0.1c-1.1,0-2.4-0.1-3.7-0.1c-1.4,0-2.9-0.1-4.4,0c-1.5,0-2.9,0.1-4.2,0.3
	c-1.3,0.2-2.3,0.5-3.1,1c-0.8,0.4-1.2,1.1-1.2,1.9c0,0.4,0,0.8,0.1,1.3c0,0.5,0.2,1,0.4,1.5c0.3,0.5,0.6,0.9,1.2,1.2
	c0.5,0.4,1.3,0.6,2.3,0.7c2.2,0.3,4,0.5,5.2,0.6c1.2,0.2,2.2,0.3,2.9,0.5c0.8,0.1,1.5,0.3,2.2,0.4c0.7,0.1,1.7,0.3,2.9,0.5
	c-0.4,2.8-0.7,5.6-0.9,8.4c-0.2,2.8-0.3,5.5-0.3,8c0,5.7,0.3,10.9,1,15.6c-1,0.6-2,1.2-3,1.8c-2,1.1-3.9,2-5.8,2.9
	c-1.9,0.9-3.7,1.7-5.4,2.5c-1.7,0.8-3.3,1.7-4.8,2.7c0-2.7-0.1-5-0.3-6.9c-0.2-2-0.4-3.7-0.7-5.2c-0.3-1.5-0.6-2.8-1-4
	c-0.3-1.1-0.7-2.2-1-3.2c-0.3-1-0.6-2.1-0.7-3.1c-0.2-1.1-0.3-2.2-0.3-3.5c0.1-0.5,0.6-1.2,1.5-2.1c0.9-0.9,1.8-2,2.7-3.1
	c1-1.1,1.8-2.3,2.6-3.5c0.8-1.2,1.2-2.3,1.2-3.3c0-0.5,0-1.1-0.1-1.8c-0.1-0.7-0.4-1.3-0.9-2c-0.5-0.6-1.3-1.2-2.4-1.6
	c-1.1-0.4-2.6-0.7-4.6-0.7c-1.2,0-2.3,0.2-3.3,0.5c-1,0.4-1.9,0.8-2.7,1.4c-0.8,0.6-1.6,1.2-2.2,1.9c-0.7,0.7-1.3,1.4-1.8,2.2
	c-2.7,3.3-4.8,6.1-6.5,8.3c-1.7,2.2-3.1,4.1-4.2,5.7c-1.2,1.5-2.2,2.9-3,4c-0.9,1.1-1.8,2.2-2.8,3.3c-1,1.1-2.3,2.3-3.7,3.7
	c-1.5,1.3-3.4,3-5.7,5c-0.3,0.3-0.8,0.7-1.5,1.2c-0.7,0.5-1.3,1.1-2,1.7c-0.7,0.7-1.2,1.4-1.7,2.3c-0.3,0.6-0.6,1.2-0.7,1.9
	c-1,0.6-1.9,1-2.8,1.4c-1,0.4-1.9,0.6-2.7,0.6c-0.8,0-1.5-0.7-2.1-2.1c-0.6-1.4-0.9-3.2-0.9-5.5c0-2.9,0.1-5.6,0.4-8.2
	c0.3-2.6,0.6-5.1,1-7.6c0.4-2.5,0.7-5,1-7.6c0.3-2.6,0.4-5.3,0.4-8.2c0-1.9-0.7-3.3-2-4.3c-1.4-1-3-1.5-5-1.5
	c-1.7,0-3.2,0.6-4.4,1.7c-1.2,1.1-2.4,2.6-3.6,4.2c-1.2,1.7-2.6,3.7-4,5.9s-2.8,4.4-4.1,6.4c-1.3,2-2.3,3.8-3.2,5.2
	c-0.9,1.4-1.4,2.2-1.4,2.3l-0.7-0.7c0-0.1,0-0.2,0.1-0.5c0-0.2,0.2-0.9,0.4-1.8c0.3-1.4,0.6-2.7,0.9-4c0.3-1.3,0.7-2.7,1-4
	c0.3-1.4,0.6-2.8,0.8-4.2c0.2-1.5,0.3-3,0.3-4.6c0-1.9-0.6-3.3-1.9-4.3c-1.2-1-2.7-1.5-4.5-1.5c-1.9,0-3.5,0.6-4.8,1.7
	c-1.4,1.1-2.6,2.5-3.8,4.2c-1.2,1.7-2.6,3.7-3.9,5.9c-1.4,2.2-2.7,4.4-3.8,6.4c-1.2,2-2.2,3.8-3,5.2c-0.8,1.5-1.3,2.2-1.3,2.4
	l-0.7-0.7c0.4-2.6,0.8-5.2,1.2-7.6c0.2-1,0.3-2.1,0.5-3.2c0.1-1.1,0.3-2.2,0.4-3.2c0.1-1,0.2-2,0.3-2.9c0.1-0.9,0.1-1.7,0.1-2.4
	c0-1.3,0-2.3-0.1-3.1c-0.1-0.7-0.3-1.3-0.8-1.7c-0.4-0.4-1.1-0.6-2-0.7c-0.9-0.1-2.1-0.2-3.7-0.2c-1,0-1.9,0.1-2.6,0.2
	c-0.7,0.1-1.2,0.4-1.7,0.9c-0.5,0.4-0.9,1.1-1.3,1.8c-0.4,0.8-0.8,1.9-1.2,3.2c-0.4,1.3-0.9,3-1.4,5s-1,4.3-1.5,6.7
	c-0.4,2.3-0.9,4.7-1.3,7.2c-1.1,0.6-2.2,1.1-3.4,1.6c-2,0.8-3.9,1.2-5.8,1.2c-0.7,0-1.3-0.1-1.9-0.4c-0.6-0.3-1.1-0.7-1.6-1.3
	c-0.5-0.6-0.9-1.4-1.2-2.4c-0.3-1-0.4-2.2-0.4-3.7c0-0.9,0.1-2,0.3-3.3c0.2-1.3,0.4-2.7,0.7-4.1c0.2-1.4,0.5-2.7,0.7-4
	c0.2-1.3,0.3-2.3,0.3-3c0-0.9-0.2-1.7-0.5-2.5c-0.3-0.7-0.8-1.3-1.3-1.8c-0.6-0.5-1.2-0.9-2-1.2c-0.7-0.3-1.5-0.4-2.3-0.4
	c-2.3,0-4.3,0.6-6.1,1.8c-1.7,1.2-3.3,2.7-4.7,4.5c-1.4,1.8-2.6,3.7-3.6,5.8c-1,2.1-2,3.9-2.8,5.6h-0.7c-0.1-2.1-0.1-4.3-0.1-6.5
	c0-2.2,0-4.1,0-5.6c0-1.3,0-2.3-0.1-3.1c-0.1-0.7-0.2-1.3-0.5-1.7c-0.3-0.4-0.7-0.6-1.3-0.7c-0.6-0.1-1.4-0.2-2.5-0.2
	c-1,0-1.8,0.1-2.4,0.2c-0.6,0.1-1.2,0.3-1.6,0.6c-0.4,0.3-0.8,0.7-1.2,1.3c-0.3,0.5-0.7,1.3-1,2.2c-0.5,1.4-1.1,3.1-1.6,5.2
	c-0.5,2.1-1.1,4.5-1.6,7c-0.5,2.5-1.1,5.2-1.5,8c-0.5,2.8-0.9,5.6-1.2,8.3c-0.1,0.9-0.2,1.7-0.3,2.5c-0.9,1.1-1.8,2.1-2.7,3.1
	c-0.9,1-1.8,1.9-2.8,2.8c-1,0.9-2,1.7-2.9,2.4c-1,0.7-1.9,1.3-2.9,1.7c-1,0.4-1.9,0.7-2.7,0.7c-1.2,0-1.9-0.6-2.3-1.7
	c-0.4-1.1-0.5-2.6-0.5-4.6c0-2.3,0.2-4.7,0.6-7.3c0.4-2.6,0.9-5.1,1.4-7.7c0.5-2.6,1-5.1,1.4-7.5c0.4-2.4,0.6-4.7,0.6-6.7
	c0-1.3-0.1-2.3-0.3-3.1c-0.2-0.7-0.6-1.3-1-1.7c-0.4-0.4-0.9-0.7-1.4-0.8c-0.5-0.1-1.1-0.2-1.7-0.2c-0.5,0-0.9,0-1.4,0
	c-0.5,0-0.9,0-1.4,0c-0.5,0-1.1,0-1.6-0.1c-0.5-0.1-1-0.2-1.5-0.4c-0.5-0.2-0.9-0.5-1.2-1c-0.3-0.5-0.7-0.9-1-1.4
	c-0.4-0.5-0.8-0.9-1.3-1.3c-0.5-0.4-1.3-0.6-2.2-0.6c-2.9,0-5.7,0.6-8.5,1.8c-2.8,1.2-5.4,2.9-7.9,5c-2.5,2.1-4.8,4.5-6.9,7.3
	c-2.1,2.8-3.9,5.8-5.5,8.9c-1.5,3.1-2.7,6.4-3.6,9.6c-0.9,3.3-1.3,6.5-1.3,9.6c0,2.7,0.4,5.2,1.3,7.4c0.9,2.2,2,4,3.5,5.6
	c1.5,1.5,3.1,2.7,5,3.5c1.9,0.8,3.8,1.2,5.8,1.2c1.9,0,3.7-0.3,5.6-0.9c1.9-0.6,3.7-1.4,5.4-2.4c1.7-1,3.3-2.1,4.8-3.3
	c1.5-1.2,2.7-2.4,3.7-3.6c1.3,3.4,2.9,5.9,4.7,7.7c1.8,1.8,4.1,2.7,6.9,2.7c2.3,0,4.6-0.6,6.9-1.7c2.3-1.1,4.4-2.5,6.4-4.1
	c0.8-0.7,1.6-1.3,2.3-2c0.2,1.3,0.5,2.4,1,3.5c0.6,1.2,1.4,2.2,2.4,2.9c1,0.7,2.4,1.1,4.1,1.1c0.7,0,1.4-0.1,2.1-0.4
	c0.6-0.3,1.2-0.7,1.7-1.4c0.5-0.7,1.1-1.5,1.6-2.6c0.5-1.1,1.1-2.4,1.7-4l11.2-31.2h1c0.3,2.6,0.8,5.2,1.3,7.8
	c0.5,2.6,1.4,4.9,2.5,6.9s2.6,3.7,4.6,5s4.4,1.9,7.6,1.9c1.7,0,3.5-0.3,5.2-0.8c1.4-0.4,2.8-1,4.2-1.6c0,0.4-0.1,0.9-0.1,1.3
	c-0.2,2.3-0.3,4.4-0.3,6.1c0,1.7,0.1,3.3,0.3,4.8c0.2,1.6,0.6,3,1.1,4.2c0.6,1.2,1.4,2.2,2.4,2.9c1,0.7,2.4,1.1,4.1,1.1
	c1.3,0,2.6-0.3,3.7-0.9c1.1-0.6,2.1-1.8,2.9-3.5c2.9-5.8,5.2-10.6,7-14.5c1.8-3.9,3.3-7,4.5-9.4c1.2-2.4,2.1-4.2,2.7-5.5
	c0.6-1.2,1.2-2.2,1.7-2.8h0.9c-0.7,3.8-1.2,7.4-1.7,10.7c-0.2,1.4-0.4,2.8-0.6,4.3c-0.2,1.4-0.4,2.8-0.6,4.1
	c-0.2,1.3-0.3,2.4-0.4,3.4c-0.1,1-0.1,1.8-0.1,2.3c0,1.3,0.1,2.6,0.2,4c0.1,1.4,0.4,2.6,0.9,3.8c0.4,1.1,1.1,2.1,1.8,2.8
	c0.8,0.7,1.9,1.1,3.2,1.1c1.7,0,3.3-0.3,4.6-0.9c1.3-0.6,2.5-1.8,3.6-3.5l12.7-32.3h0.9c-0.3,3-0.6,6-0.8,8.9
	c-0.2,2.9-0.3,5.7-0.3,8.3c0,2.8,0.1,5.4,0.4,7.7c0.3,2.4,0.7,4.4,1.3,6.2c0.6,1.7,1.4,3.1,2.5,4.1c1,1,2.3,1.5,3.8,1.5
	c3,0,5.8-0.4,8.2-1.2c2.4-0.8,4.6-1.9,6.7-3.1c2-1.3,3.9-2.7,5.7-4.2c0.3-0.3,0.7-0.6,1-0.9c0.3,1.2,0.8,2.3,1.4,3.3
	c1,1.6,2.3,2.9,3.9,3.8c1.6,1,3.5,1.7,5.6,2.2c2.1,0.5,4.4,0.7,6.9,0.7c3.4,0,7-0.4,10.8-1.2c3.8-0.8,7.6-1.8,11.3-3.2
	c3.7-1.3,7.3-2.9,10.7-4.6c3.3-1.7,6.2-3.5,8.7-5.4c0.3,0.9,0.7,1.8,1.1,2.7c1.6,3.6,3.6,6.4,6.1,8.3c2.4,1.9,5.2,2.9,8.4,2.9
	c1.5,0,3.3-0.3,5.2-0.9c1.9-0.6,4.1-1.5,6.5-2.6c2.4-1.2,5.2-2.6,8.3-4.4c2.6-1.5,5.5-3.1,8.7-5c0,1.6,0.1,3.2,0.3,4.7
	c0.2,1.6,0.6,3,1.1,4.2c0.6,1.2,1.4,2.2,2.4,2.9c1,0.7,2.4,1.1,4.1,1.1c0.8,0,1.4-0.1,2.1-0.4c0.6-0.3,1.2-0.7,1.7-1.4
	c0.5-0.7,1.1-1.5,1.6-2.6c0.5-1.1,1.1-2.4,1.7-4l11.2-31.2h1c0.3,2.6,0.8,5.2,1.3,7.8c0.5,2.6,1.4,4.9,2.5,6.9
	c1.1,2.1,2.6,3.7,4.6,5c1.9,1.3,4.4,1.9,7.6,1.9c1.7,0,3.5-0.3,5.2-0.8c0.8-0.3,1.6-0.5,2.4-0.9c0.1,0.7,0.3,1.5,0.5,2.2
	c0.8,3.2,2,6.2,3.7,8.7c1.7,2.6,3.8,4.7,6.4,6.3c2.6,1.6,5.7,2.4,9.4,2.4c2.5,0,4.9-0.4,7.2-1.3c2.2-0.9,4.3-2.1,6.2-3.6
	c1.9-1.5,3.6-3.3,5.1-5.3c1.5-2,2.7-4.2,3.7-6.6c1-2.3,1.8-4.7,2.3-7.2c0.5-2.5,0.8-5,0.8-7.4c0-2.5-0.3-5-0.9-7.7
	c-0.6-2.7-1.5-5.2-2.7-7.7l0.5-0.7c1.5,1,3.3,2.2,5.4,3.7c2.1,1.5,4.2,3.1,6.3,4.7c2,1.6,4,3.2,5.8,4.9c0,0.2-0.1,0.4-0.1,0.6
	c-0.5,3.7-0.9,7.4-1.2,11c-0.3,3.6-0.5,6.8-0.5,9.5c0,1.7,0.1,3.3,0.3,4.8c0.2,1.6,0.6,3,1.1,4.2c0.6,1.2,1.4,2.2,2.4,2.9
	c1,0.7,2.4,1.1,4.1,1.1c1.4,0,2.6-0.3,3.6-0.9c1-0.6,2-1.8,2.8-3.5l16.4-32.5h1c-0.5,3.3-0.9,6.4-1.3,9.3c-0.3,2.9-0.5,5.6-0.5,8.1
	c0,6.4,0.8,11.2,2.3,14.5c1.6,3.3,3.5,5,5.8,5c2.3,0,4.5-0.3,6.6-1c2.1-0.6,4.1-1.5,6-2.5c1.9-1,3.8-2.2,5.5-3.5
	c0.2-0.1,0.3-0.2,0.5-0.3c0.6,1,1.3,1.9,2.1,2.7c1.5,1.5,3.1,2.7,5,3.5c1.9,0.8,3.8,1.2,5.8,1.2c2.3,0,4.7-0.6,7.1-1.8
	c2.4-1.2,4.8-2.8,7-4.8l-1.7,5.8c-3,2.5-6,5-8.9,7.7c-2.9,2.7-5.7,5.5-8.4,8.2c-2.7,2.8-5.2,5.6-7.5,8.4c-2.3,2.8-4.3,5.5-5.9,8.1
	c-1.7,2.6-3,5.1-3.9,7.4c-1,2.4-1.4,4.5-1.4,6.3c0,2.7,0.5,4.9,1.4,6.5c0.9,1.6,2.1,2.9,3.5,3.7c1.4,0.9,2.9,1.5,4.6,1.7
	c1.6,0.3,3.2,0.4,4.6,0.4c3.6,0,6.8-0.6,9.8-1.8c3-1.2,5.6-2.9,8-5.2c2.4-2.2,4.5-4.9,6.4-7.9c1.9-3.1,3.6-6.5,5.1-10.2
	c1.5-3.7,2.8-7.6,3.8-11.9c1.1-4.2,2-8.6,2.8-13c4.1-2.5,7.9-5.1,11.4-7.7c1.5-1.1,3-2.3,4.6-3.6c1.6-1.3,3.1-2.6,4.5-3.9
	c1.4-1.4,2.7-2.7,3.9-4.1c1.2-1.4,2.2-2.7,2.9-4C541.2,448.8,543.5,446.2,542.6,442.5z M277.9,387.8c0.9-3.6,1.9-6.9,2.9-9.8
	c1-3,2.1-5.4,3.2-7.3c1.1-1.9,2.2-2.9,3.3-2.9c0.8,0,1.4,0.2,1.8,0.5c0.4,0.3,0.8,0.7,1,1.2c0.2,0.5,0.3,1,0.4,1.6
	c0.1,0.6,0.1,1.1,0.1,1.5c0,1.3-0.4,3-1.1,5.1c-0.7,2.1-1.6,4.3-2.7,6.7c-1.1,2.4-2.3,4.8-3.7,7.3c-1.4,2.5-2.7,4.8-3.9,6.9
	c-0.7-0.1-1.3-0.2-1.9-0.2c-0.6-0.1-1.2-0.1-1.9-0.2C276.2,394.8,277,391.4,277.9,387.8z M38.3,436.1c-0.2,1.3-0.5,3-1.1,5
	c-0.6,2-1.3,3.9-2.2,5.8c-0.9,1.9-2,3.5-3.2,4.8c-1.2,1.3-2.6,2-4.2,2c-1,0-1.7-0.2-2.4-0.7c-0.6-0.5-1.1-1.1-1.5-1.9
	c-0.4-0.8-0.6-1.6-0.8-2.6c-0.1-1-0.2-2-0.2-3c0-1.8,0.2-3.8,0.7-5.9c0.5-2.1,1.2-4.2,2-6.2c0.9-2.1,1.9-4,3.1-5.9
	c1.2-1.9,2.5-3.5,4-5c1.4-1.5,3-2.6,4.6-3.5c1.6-0.9,3.3-1.3,5-1.3L38.3,436.1z M228.5,449.6c-0.3,1.2-0.7,2.2-1.3,3.1
	c-0.6,0.9-1.5,1.6-2.5,2.2c-1.1,0.5-2.4,0.8-4,0.8c-1.3,0-2.5-0.3-3.6-0.9c-1-0.6-2-1.3-2.7-2.1c-0.8-0.7-1.5-1.4-2.1-2.1
	c-0.6-0.6-1.2-0.9-1.7-0.9l16.1-16c0.2,0.7,0.4,1.5,0.7,2.4c0.3,0.9,0.5,1.9,0.7,3c0.2,1.1,0.4,2.2,0.6,3.3c0.1,1.2,0.2,2.3,0.2,3.4
	C228.9,447.1,228.7,448.4,228.5,449.6z M391.7,438.8c-0.6,2.6-1.4,5.1-2.4,7.2s-2.2,4-3.5,5.4c-1.3,1.4-2.7,2.2-4.1,2.2
	c-1.6,0-3-0.3-4.2-1c-1.2-0.7-2.1-1.6-2.8-2.7c-0.7-1.1-1.2-2.5-1.6-4c-0.3-1.5-0.5-3.2-0.5-4.9c0-2.5,0.3-5.2,1-7.9
	c0.7-2.7,1.6-5.3,2.7-7.5c1.2-2.3,2.5-4.1,4.1-5.6c1.5-1.5,3.2-2.2,4.9-2.2c1.3,0,2.4,0.4,3.3,1.1c0.9,0.7,1.7,1.7,2.2,2.9
	c0.6,1.2,1,2.6,1.3,4.3c0.3,1.6,0.4,3.4,0.4,5.3C392.6,433.7,392.3,436.2,391.7,438.8z M495.6,487.3c-0.6,2.1-1.3,4.3-2.1,6.5
	c-0.8,2.2-1.8,4.4-2.9,6.5c-1.1,2.1-2.3,4-3.6,5.7c-1.3,1.7-2.7,3-4.3,4c-1.6,1-3.2,1.5-5,1.5c-1.7,0-2.5-0.8-2.5-2.3
	c0-1,0.3-2.2,0.9-3.6c0.6-1.5,1.5-3,2.6-4.7c1.1-1.7,2.3-3.4,3.8-5.3s3-3.6,4.6-5.3c1.6-1.7,3.2-3.3,4.9-4.8c1.7-1.5,3.3-2.8,5-3.9
	C496.7,483.3,496.2,485.2,495.6,487.3z M502.6,436.1c-0.2,1.3-0.5,3-1.1,5c-0.6,2-1.3,3.9-2.2,5.8c-0.9,1.9-2,3.5-3.2,4.8
	c-1.2,1.3-2.6,2-4.2,2c-1,0-1.7-0.2-2.4-0.7c-0.6-0.5-1.1-1.1-1.5-1.9c-0.4-0.8-0.6-1.6-0.8-2.6c-0.1-1-0.2-2-0.2-3
	c0-1.8,0.2-3.8,0.7-5.9c0.5-2.1,1.2-4.2,2-6.2c0.9-2.1,1.9-4,3.1-5.9c1.2-1.9,2.5-3.5,4-5c1.4-1.5,3-2.6,4.6-3.5
	c1.6-0.9,3.3-1.3,5-1.3L502.6,436.1z"/>
<path fill="#4B5E51" stroke="#FFFFFF" stroke-width="2" stroke-miterlimit="10" d="M542.6,436.8c-0.9-3.7-3.8-8.2-5.3-6
	c-2.7,4-5.2,7.3-7.4,9.9c-2.2,2.6-4.2,4.8-6,6.6c-1.8,1.7-3.4,3.1-4.9,4.2c-1.5,1-2.8,1.9-4.1,2.6c1.1-6.5,2.1-12.7,3-18.4
	c0.4-2.4,0.7-4.9,1.1-7.4c0.4-2.5,0.7-4.9,1-7.2c0.3-2.2,0.5-4.3,0.7-6.1c0.2-1.8,0.2-3.3,0.2-4.4c0-1.3-0.1-2.3-0.3-3.1
	c-0.2-0.7-0.6-1.3-1-1.7c-0.4-0.4-0.9-0.7-1.4-0.8c-0.5-0.1-1.1-0.2-1.7-0.2c-0.5,0-0.9,0-1.4,0c-0.5,0-0.9,0-1.4,0
	c-0.5,0-1.1,0-1.6-0.1c-0.5-0.1-1-0.2-1.5-0.4c-0.5-0.2-0.9-0.5-1.2-1c-0.3-0.5-0.7-0.9-1-1.4c-0.4-0.5-0.8-0.9-1.3-1.3
	c-0.5-0.4-1.3-0.6-2.2-0.6c-2.9,0-5.7,0.6-8.5,1.8c-2.8,1.2-5.4,2.9-7.9,5c-2.5,2.1-4.8,4.5-6.9,7.3c-2.1,2.8-3.9,5.8-5.5,8.9
	c-1.5,3.1-2.7,6.4-3.6,9.6c-0.8,3-1.2,5.9-1.3,8.8c-0.1,0.1-0.2,0.2-0.3,0.3c-1,0.8-1.9,1.5-2.9,2.1c-0.9,0.6-1.8,1.1-2.6,1.5
	s-1.5,0.6-2.2,0.6c-1.4,0-2.4-0.8-3-2.5c-0.6-1.7-1-3.8-1-6.4c0-1.5,0.1-3.2,0.3-5.1c0.2-1.8,0.4-3.7,0.7-5.6c0.3-1.9,0.6-3.7,1-5.5
	c0.4-1.8,0.7-3.4,1-4.9c0.3-1.5,0.5-2.8,0.7-3.9s0.3-1.9,0.3-2.3c0-3.1-0.6-5.5-1.8-7.2c-1.2-1.7-2.9-2.6-5-2.6
	c-2.1,0-4,0.4-5.7,1.2c-1.7,0.8-3.2,2.4-4.6,4.6c-0.3,0.5-0.7,1.3-1.3,2.3c-0.6,1-1.2,2.2-1.9,3.6c-0.7,1.4-1.5,2.8-2.3,4.2
	c-0.8,1.5-1.6,2.9-2.3,4.2c-0.7,1.3-1.3,2.5-1.9,3.5c-0.5,1-0.9,1.8-1.2,2.2h-1.2c0-0.3,0.1-0.9,0.2-1.7c0.1-0.9,0.3-1.9,0.5-3
	c0.2-1.1,0.4-2.4,0.6-3.7c0.2-1.4,0.4-2.7,0.6-3.9c0.2-1.3,0.3-2.4,0.5-3.5c0.1-1.1,0.2-1.9,0.2-2.5c0-2.3-0.4-4.1-1.3-5.5
	c-0.9-1.4-2.4-2.1-4.7-2.1s-4,0.6-5.3,1.9c-1.3,1.3-2.2,2.9-2.7,4.8c-0.6,2.5-1.2,5.4-1.8,8.9c-0.1,0.4-0.1,0.7-0.2,1.1
	c-0.9-1-1.7-1.9-2.7-2.9c-2.6-2.7-5.4-5-8.4-7.1c-3-2.1-6.3-3.7-9.7-4.9c-3.5-1.2-7.2-1.8-11.1-1.8c-4.6,0-8.8,0.8-12.5,2.5
	c-3.7,1.7-6.8,4-9.4,6.9c-2.6,2.9-4.5,6.4-5.9,10.4c-0.8,2.3-1.3,4.6-1.7,7.1c-1.8,0.7-3.6,1.1-5.3,1.1c-0.7,0-1.3-0.1-1.9-0.4
	c-0.6-0.3-1.1-0.7-1.6-1.3c-0.5-0.6-0.9-1.4-1.2-2.4c-0.3-1-0.4-2.2-0.4-3.7c0-0.9,0.1-2,0.3-3.3c0.2-1.3,0.4-2.7,0.7-4.1
	c0.2-1.4,0.5-2.7,0.7-4c0.2-1.3,0.3-2.3,0.3-3c0-0.9-0.2-1.7-0.5-2.5c-0.3-0.7-0.8-1.3-1.3-1.8c-0.6-0.5-1.2-0.9-2-1.2
	c-0.8-0.3-1.5-0.4-2.3-0.4c-2.3,0-4.3,0.6-6.1,1.8c-1.7,1.2-3.3,2.7-4.7,4.5c-1.4,1.8-2.6,3.7-3.6,5.8c-1,2.1-2,3.9-2.8,5.6h-0.7
	c-0.1-2.1-0.1-4.3-0.1-6.5c0-2.2,0-4.1,0-5.6c0-1.3,0-2.3-0.1-3.1c-0.1-0.7-0.2-1.3-0.5-1.7c-0.3-0.4-0.7-0.6-1.3-0.7
	c-0.6-0.1-1.4-0.2-2.5-0.2c-1,0-1.8,0.1-2.4,0.2c-0.6,0.1-1.2,0.3-1.6,0.6c-0.4,0.3-0.8,0.7-1.2,1.3c-0.3,0.5-0.7,1.3-1,2.2
	c-0.5,1.4-1.1,3.1-1.6,5.2c-0.5,2.1-1.1,4.5-1.6,7c-0.5,2.5-1.1,5.2-1.5,8c-0.3,2-0.6,4-0.9,5.9c-1.1,1.2-2.4,2.4-3.7,3.6
	c-1.5,1.3-3.2,2.6-4.8,3.7c-1.7,1.2-3.4,2.3-5.1,3.3c-1.7,1-3.4,1.9-4.9,2.6c-1.6,0.7-3,1.3-4.3,1.7c-1.3,0.4-2.4,0.6-3.3,0.6
	c-1.4,0-2.7-0.2-3.8-0.7c-1.1-0.4-2.1-1.1-2.9-2.1c-0.8-1-1.4-2.2-1.8-3.8c-0.4-1.5-0.6-3.4-0.6-5.7c0-0.9,0-1.8,0-2.9
	c0-1,0.1-2.1,0.1-3.2c0-1.1,0.1-2.3,0.1-3.4c0-1.1,0.1-2.3,0.1-3.3c0.1-2.5,0.3-5,0.4-7.6c1-1.3,2.2-2.7,3.4-4.3
	c1.2-1.6,2.4-3.2,3.7-4.9h24c1,0,1.9-0.5,2.7-1.4c0.8-0.9,1.2-2.1,1.2-3.6c0-1.2-0.2-2.2-0.6-3c-0.4-0.8-1-1.2-1.8-1.2
	c-0.7,0-1.6-0.1-2.7-0.1c-1.1,0-2.2-0.1-3.5-0.1c-1.2,0-2.5-0.1-3.9-0.2c-1.3-0.1-2.6-0.1-3.7-0.2c-1.1,0-2.2-0.1-3-0.1
	c-0.9,0-1.5-0.1-1.9-0.1c1.5-2.4,2.9-4.8,4.3-7.2c1.4-2.4,2.5-4.8,3.5-7.2c1-2.4,1.8-4.7,2.4-6.9c0.6-2.3,0.9-4.4,0.9-6.5
	c0-2.4-0.3-4.7-0.8-7c-0.6-2.2-1.4-4.2-2.4-5.8c-1-1.7-2.3-3-3.8-4c-1.5-1-3.1-1.5-4.9-1.5c-2.8,0-5.5,1.2-8,3.7
	c-2.5,2.5-4.9,5.8-7,9.9c-2.1,4.1-4.1,8.8-5.8,14.1c-1.7,5.3-3.2,10.7-4.3,16.3c-0.4,0.1-1.2,0.1-2.3,0.1c-1.1,0-2.4-0.1-3.7-0.1
	c-1.4,0-2.9-0.1-4.4,0c-1.5,0-2.9,0.1-4.2,0.3c-1.3,0.2-2.3,0.5-3.1,1c-0.8,0.4-1.2,1.1-1.2,1.9c0,0.4,0,0.8,0.1,1.3
	c0,0.5,0.2,1,0.4,1.5c0.3,0.5,0.6,0.9,1.2,1.2c0.5,0.4,1.3,0.6,2.3,0.7c2.2,0.3,4,0.5,5.2,0.6c1.2,0.2,2.2,0.3,2.9,0.5
	c0.8,0.1,1.5,0.3,2.2,0.4c0.7,0.1,1.7,0.3,2.9,0.5c-0.4,2.8-0.7,5.6-0.9,8.4c-0.2,2.8-0.3,5.5-0.3,8c0,5.7,0.3,10.9,1,15.6
	c-1,0.6-2,1.2-3,1.8c-2,1.1-3.9,2-5.8,2.9c-1.9,0.9-3.7,1.7-5.4,2.5c-1.7,0.8-3.3,1.7-4.8,2.7c0-2.7-0.1-5-0.3-6.9
	c-0.2-2-0.4-3.7-0.7-5.2c-0.3-1.5-0.6-2.8-1-4c-0.3-1.1-0.7-2.2-1-3.2c-0.3-1-0.6-2.1-0.7-3.1c-0.2-1.1-0.3-2.2-0.3-3.5
	c0.1-0.5,0.6-1.2,1.5-2.1c0.9-0.9,1.8-2,2.7-3.1c1-1.1,1.8-2.3,2.6-3.5c0.8-1.2,1.2-2.3,1.2-3.3c0-0.5,0-1.1-0.1-1.8
	c-0.1-0.7-0.4-1.3-0.9-2c-0.5-0.6-1.3-1.2-2.4-1.6c-1.1-0.4-2.6-0.7-4.6-0.7c-1.2,0-2.3,0.2-3.3,0.5c-1,0.4-1.9,0.8-2.7,1.4
	c-0.8,0.6-1.6,1.2-2.2,1.9c-0.7,0.7-1.3,1.4-1.8,2.2c-2.7,3.3-4.8,6.1-6.5,8.3c-1.7,2.2-3.1,4.1-4.2,5.7c-1.2,1.5-2.2,2.9-3,4
	c-0.9,1.1-1.8,2.2-2.8,3.3c-1,1.1-2.3,2.3-3.7,3.7c-1.5,1.3-3.4,3-5.7,5c-0.3,0.3-0.8,0.7-1.5,1.2c-0.7,0.5-1.3,1.1-2,1.7
	c-0.7,0.7-1.2,1.4-1.7,2.3c-0.3,0.6-0.6,1.2-0.7,1.9c-1,0.6-1.9,1-2.8,1.4c-1,0.4-1.9,0.6-2.7,0.6c-0.8,0-1.5-0.7-2.1-2.1
	c-0.6-1.4-0.9-3.2-0.9-5.5c0-2.9,0.1-5.6,0.4-8.2c0.3-2.6,0.6-5.1,1-7.6c0.4-2.5,0.7-5,1-7.6c0.3-2.6,0.4-5.3,0.4-8.2
	c0-1.9-0.7-3.3-2-4.3c-1.4-1-3-1.5-5-1.5c-1.7,0-3.2,0.6-4.4,1.7c-1.2,1.1-2.4,2.6-3.6,4.2c-1.2,1.7-2.6,3.7-4,5.9
	c-1.4,2.2-2.8,4.4-4.1,6.4c-1.3,2-2.3,3.8-3.2,5.2c-0.9,1.4-1.4,2.2-1.4,2.3l-0.7-0.8c0-0.1,0-0.2,0.1-0.5c0-0.2,0.2-0.9,0.4-1.8
	c0.3-1.4,0.6-2.7,0.9-4c0.3-1.3,0.7-2.7,1-4c0.3-1.4,0.6-2.8,0.8-4.2c0.2-1.5,0.3-3,0.3-4.6c0-1.9-0.6-3.3-1.9-4.3
	c-1.2-1-2.7-1.5-4.5-1.5c-1.9,0-3.5,0.6-4.8,1.7c-1.4,1.1-2.6,2.5-3.8,4.2c-1.2,1.7-2.6,3.7-3.9,5.9c-1.4,2.2-2.7,4.4-3.8,6.4
	c-1.2,2-2.2,3.8-3,5.2c-0.8,1.5-1.3,2.2-1.3,2.4l-0.7-0.8c0.4-2.6,0.8-5.2,1.2-7.6c0.2-1,0.3-2.1,0.5-3.2c0.1-1.1,0.3-2.2,0.4-3.2
	c0.1-1,0.2-2,0.3-2.9c0.1-0.9,0.1-1.7,0.1-2.4c0-1.3,0-2.3-0.1-3.1c-0.1-0.7-0.3-1.3-0.8-1.7c-0.4-0.4-1.1-0.6-2-0.7
	c-0.9-0.1-2.1-0.2-3.7-0.2c-1,0-1.9,0.1-2.6,0.2c-0.7,0.1-1.2,0.4-1.7,0.9c-0.5,0.4-0.9,1.1-1.3,1.8c-0.4,0.8-0.8,1.9-1.2,3.2
	c-0.4,1.3-0.9,3-1.4,5c-0.5,2-1,4.3-1.5,6.7c-0.4,2.3-0.9,4.7-1.3,7.2c-1.1,0.6-2.2,1.1-3.4,1.6c-2,0.8-3.9,1.2-5.8,1.2
	c-0.7,0-1.3-0.1-1.9-0.4c-0.6-0.3-1.1-0.7-1.6-1.3c-0.5-0.6-0.9-1.4-1.2-2.4c-0.3-1-0.4-2.2-0.4-3.7c0-0.9,0.1-2,0.3-3.3
	c0.2-1.3,0.4-2.7,0.7-4.1c0.2-1.4,0.5-2.7,0.7-4c0.2-1.3,0.3-2.3,0.3-3c0-0.9-0.2-1.7-0.5-2.5c-0.3-0.7-0.8-1.3-1.3-1.8
	c-0.6-0.5-1.2-0.9-2-1.2c-0.7-0.3-1.5-0.4-2.3-0.4c-2.3,0-4.3,0.6-6.1,1.8c-1.7,1.2-3.3,2.7-4.7,4.5c-1.4,1.8-2.6,3.7-3.6,5.8
	c-1,2.1-2,3.9-2.8,5.6h-0.7c-0.1-2.1-0.1-4.3-0.1-6.5c0-2.2,0-4.1,0-5.6c0-1.3,0-2.3-0.1-3.1c-0.1-0.7-0.2-1.3-0.5-1.7
	c-0.3-0.4-0.7-0.6-1.3-0.7c-0.6-0.1-1.4-0.2-2.5-0.2c-1,0-1.8,0.1-2.4,0.2c-0.6,0.1-1.2,0.3-1.6,0.6c-0.4,0.3-0.8,0.7-1.2,1.3
	c-0.3,0.5-0.7,1.3-1,2.2c-0.5,1.4-1.1,3.1-1.6,5.2c-0.5,2.1-1.1,4.5-1.6,7c-0.5,2.5-1.1,5.2-1.5,8c-0.5,2.8-0.9,5.6-1.2,8.3
	c-0.1,0.9-0.2,1.7-0.3,2.5c-0.9,1.1-1.8,2.1-2.7,3.1c-0.9,1-1.8,1.9-2.8,2.8c-1,0.9-2,1.7-2.9,2.4c-1,0.7-1.9,1.3-2.9,1.7
	c-1,0.4-1.9,0.7-2.7,0.7c-1.2,0-1.9-0.6-2.3-1.7c-0.4-1.1-0.5-2.6-0.5-4.6c0-2.3,0.2-4.7,0.6-7.3c0.4-2.6,0.9-5.1,1.4-7.7
	c0.5-2.6,1-5.1,1.4-7.5c0.4-2.4,0.6-4.7,0.6-6.7c0-1.3-0.1-2.3-0.3-3.1c-0.2-0.7-0.6-1.3-1-1.7c-0.4-0.4-0.9-0.7-1.4-0.8
	c-0.5-0.1-1.1-0.2-1.7-0.2c-0.5,0-0.9,0-1.4,0c-0.5,0-0.9,0-1.4,0c-0.5,0-1.1,0-1.6-0.1c-0.5-0.1-1-0.2-1.5-0.4
	c-0.5-0.2-0.9-0.5-1.2-1c-0.3-0.5-0.7-0.9-1-1.4c-0.4-0.5-0.8-0.9-1.3-1.3c-0.5-0.4-1.3-0.6-2.2-0.6c-2.9,0-5.7,0.6-8.5,1.8
	c-2.8,1.2-5.4,2.9-7.9,5c-2.5,2.1-4.8,4.5-6.9,7.3c-2.1,2.8-3.9,5.8-5.5,8.9c-1.5,3.1-2.7,6.4-3.6,9.6c-0.9,3.3-1.3,6.5-1.3,9.6
	c0,2.7,0.4,5.2,1.3,7.4c0.9,2.2,2,4,3.5,5.6c1.5,1.5,3.1,2.7,5,3.5c1.9,0.8,3.8,1.2,5.8,1.2c1.9,0,3.7-0.3,5.6-0.9
	c1.9-0.6,3.7-1.4,5.4-2.4c1.7-1,3.3-2.1,4.8-3.3c1.5-1.2,2.7-2.4,3.7-3.6c1.3,3.4,2.9,5.9,4.7,7.7c1.8,1.8,4.1,2.7,6.9,2.7
	c2.3,0,4.6-0.6,6.9-1.7c2.3-1.1,4.4-2.5,6.4-4.1c0.8-0.7,1.6-1.3,2.3-2c0.2,1.3,0.5,2.4,1,3.5c0.6,1.2,1.4,2.2,2.4,2.9
	c1,0.7,2.4,1.1,4.1,1.1c0.7,0,1.4-0.1,2.1-0.4c0.6-0.3,1.2-0.7,1.7-1.4c0.5-0.7,1.1-1.5,1.6-2.6c0.5-1.1,1.1-2.4,1.7-4l11.2-31.2h1
	c0.3,2.6,0.8,5.2,1.3,7.8c0.5,2.6,1.4,4.9,2.5,6.9s2.6,3.7,4.6,5c1.9,1.3,4.4,1.9,7.6,1.9c1.7,0,3.5-0.3,5.2-0.8
	c1.4-0.4,2.8-1,4.2-1.6c0,0.4-0.1,0.9-0.1,1.3c-0.2,2.3-0.3,4.4-0.3,6.1c0,1.7,0.1,3.3,0.3,4.8c0.2,1.6,0.6,3,1.1,4.2
	c0.6,1.2,1.4,2.2,2.4,2.9c1,0.7,2.4,1.1,4.1,1.1c1.3,0,2.6-0.3,3.7-0.9c1.1-0.6,2.1-1.8,2.9-3.5c2.9-5.8,5.2-10.6,7-14.5
	c1.8-3.9,3.3-7,4.5-9.4c1.2-2.4,2.1-4.2,2.7-5.5c0.6-1.2,1.2-2.2,1.7-2.8h0.9c-0.7,3.8-1.2,7.4-1.7,10.7c-0.2,1.4-0.4,2.8-0.6,4.3
	c-0.2,1.4-0.4,2.8-0.6,4.1c-0.2,1.3-0.3,2.4-0.4,3.4c-0.1,1-0.1,1.8-0.1,2.3c0,1.3,0.1,2.6,0.2,4c0.1,1.4,0.4,2.6,0.9,3.8
	c0.4,1.1,1.1,2.1,1.8,2.8c0.8,0.7,1.9,1.1,3.2,1.1c1.7,0,3.3-0.3,4.6-0.9c1.3-0.6,2.5-1.8,3.6-3.5l12.7-32.3h0.9
	c-0.3,3-0.6,6-0.8,8.9c-0.2,2.9-0.3,5.7-0.3,8.3c0,2.8,0.1,5.4,0.4,7.7c0.3,2.4,0.7,4.4,1.3,6.2c0.6,1.7,1.4,3.1,2.5,4.1
	c1,1,2.3,1.5,3.8,1.5c3,0,5.8-0.4,8.2-1.2c2.4-0.8,4.6-1.9,6.7-3.1c2-1.3,3.9-2.7,5.7-4.2c0.3-0.3,0.7-0.6,1-0.9
	c0.3,1.2,0.8,2.3,1.4,3.3c1,1.6,2.3,2.9,3.9,3.8c1.6,1,3.5,1.7,5.6,2.2c2.1,0.5,4.4,0.7,6.9,0.7c3.4,0,7-0.4,10.8-1.2
	c3.8-0.8,7.6-1.8,11.3-3.2c3.7-1.3,7.3-2.9,10.7-4.6c3.3-1.7,6.2-3.5,8.7-5.4c0.3,0.9,0.7,1.8,1.1,2.7c1.6,3.6,3.6,6.4,6.1,8.3
	c2.4,1.9,5.2,2.9,8.4,2.9c1.5,0,3.3-0.3,5.2-0.9c1.9-0.6,4.1-1.5,6.5-2.6c2.4-1.2,5.2-2.6,8.3-4.4c2.6-1.5,5.5-3.1,8.7-5
	c0,1.6,0.1,3.2,0.3,4.7c0.2,1.6,0.6,3,1.1,4.2c0.6,1.2,1.4,2.2,2.4,2.9c1,0.7,2.4,1.1,4.1,1.1c0.8,0,1.4-0.1,2.1-0.4
	c0.6-0.3,1.2-0.7,1.7-1.4c0.5-0.7,1.1-1.5,1.6-2.6c0.5-1.1,1.1-2.4,1.7-4l11.2-31.2h1c0.3,2.6,0.8,5.2,1.3,7.8
	c0.5,2.6,1.4,4.9,2.5,6.9c1.1,2.1,2.6,3.7,4.6,5c1.9,1.3,4.4,1.9,7.6,1.9c1.7,0,3.5-0.3,5.2-0.8c0.8-0.3,1.6-0.5,2.4-0.9
	c0.1,0.7,0.3,1.5,0.5,2.2c0.8,3.2,2,6.2,3.7,8.7c1.7,2.6,3.8,4.7,6.4,6.3c2.6,1.6,5.7,2.4,9.4,2.4c2.5,0,4.9-0.4,7.2-1.3
	c2.2-0.9,4.3-2.1,6.2-3.6c1.9-1.5,3.6-3.3,5.1-5.3c1.5-2,2.7-4.2,3.7-6.6c1-2.3,1.8-4.7,2.3-7.2c0.5-2.5,0.8-5,0.8-7.4
	c0-2.5-0.3-5-0.9-7.7c-0.6-2.7-1.5-5.2-2.7-7.7l0.5-0.7c1.5,1,3.3,2.2,5.4,3.7c2.1,1.5,4.2,3.1,6.3,4.7c2,1.6,4,3.2,5.8,4.9
	c0,0.2-0.1,0.4-0.1,0.6c-0.5,3.7-0.9,7.4-1.2,11c-0.3,3.6-0.5,6.8-0.5,9.5c0,1.7,0.1,3.3,0.3,4.8c0.2,1.6,0.6,3,1.1,4.2
	c0.6,1.2,1.4,2.2,2.4,2.9c1,0.7,2.4,1.1,4.1,1.1c1.4,0,2.6-0.3,3.6-0.9c1-0.6,2-1.8,2.8-3.5l16.4-32.5h1c-0.5,3.3-0.9,6.4-1.3,9.3
	c-0.3,2.9-0.5,5.6-0.5,8.1c0,6.4,0.8,11.2,2.3,14.5c1.6,3.3,3.5,5,5.8,5c2.3,0,4.5-0.3,6.6-1c2.1-0.6,4.1-1.5,6-2.5
	c1.9-1,3.8-2.2,5.5-3.5c0.2-0.1,0.3-0.2,0.5-0.3c0.6,1,1.3,1.9,2.1,2.7c1.5,1.5,3.1,2.7,5,3.5c1.9,0.8,3.8,1.2,5.8,1.2
	c2.3,0,4.7-0.6,7.1-1.8c2.4-1.2,4.8-2.8,7-4.8l-1.7,5.8c-3,2.5-6,5-8.9,7.7c-2.9,2.7-5.7,5.5-8.4,8.2c-2.7,2.8-5.2,5.6-7.5,8.4
	c-2.3,2.8-4.3,5.5-5.9,8.1c-1.7,2.6-3,5.1-3.9,7.4c-1,2.4-1.4,4.5-1.4,6.3c0,2.7,0.5,4.9,1.4,6.5c0.9,1.6,2.1,2.9,3.5,3.7
	c1.4,0.9,2.9,1.5,4.6,1.7c1.6,0.3,3.2,0.4,4.6,0.4c3.6,0,6.8-0.6,9.8-1.8c3-1.2,5.6-2.9,8-5.2c2.4-2.2,4.5-4.9,6.4-7.9
	c1.9-3.1,3.6-6.5,5.1-10.2c1.5-3.7,2.8-7.6,3.8-11.9c1.1-4.2,2-8.6,2.8-13c4.1-2.5,7.9-5.1,11.4-7.7c1.5-1.1,3-2.3,4.6-3.6
	c1.6-1.3,3.1-2.6,4.5-3.9c1.4-1.4,2.7-2.7,3.9-4.1c1.2-1.4,2.2-2.7,2.9-4C541.2,443.1,543.5,440.5,542.6,436.8z M277.9,382.1
	c0.9-3.6,1.9-6.9,2.9-9.8c1-3,2.1-5.4,3.2-7.3c1.1-1.9,2.2-2.9,3.3-2.9c0.8,0,1.4,0.2,1.8,0.5c0.4,0.3,0.8,0.7,1,1.2
	c0.2,0.5,0.3,1,0.4,1.6c0.1,0.6,0.1,1.1,0.1,1.5c0,1.3-0.4,3-1.1,5.1c-0.7,2.1-1.6,4.3-2.7,6.7c-1.1,2.4-2.3,4.8-3.7,7.3
	c-1.4,2.5-2.7,4.8-3.9,6.9c-0.7-0.1-1.3-0.2-1.9-0.2c-0.6-0.1-1.2-0.1-1.9-0.2C276.2,389.1,277,385.7,277.9,382.1z M38.3,430.4
	c-0.2,1.3-0.5,3-1.1,5c-0.6,2-1.3,3.9-2.2,5.8c-0.9,1.9-2,3.5-3.2,4.8c-1.2,1.3-2.6,2-4.2,2c-1,0-1.7-0.2-2.4-0.7
	c-0.6-0.5-1.1-1.1-1.5-1.9c-0.4-0.8-0.6-1.6-0.8-2.6c-0.1-1-0.2-2-0.2-3c0-1.8,0.2-3.8,0.7-5.9c0.5-2.1,1.2-4.2,2-6.2
	c0.9-2.1,1.9-4,3.1-5.9c1.2-1.9,2.5-3.5,4-5c1.4-1.5,3-2.6,4.6-3.5c1.6-0.9,3.3-1.3,5-1.3L38.3,430.4z M228.5,443.9
	c-0.3,1.2-0.7,2.2-1.3,3.1c-0.6,0.9-1.5,1.6-2.5,2.2c-1.1,0.5-2.4,0.8-4,0.8c-1.3,0-2.5-0.3-3.6-0.9c-1-0.6-2-1.3-2.7-2.1
	c-0.8-0.7-1.5-1.4-2.1-2.1c-0.6-0.6-1.2-0.9-1.7-0.9l16.1-16c0.2,0.7,0.4,1.5,0.7,2.4c0.3,0.9,0.5,1.9,0.7,3
	c0.2,1.1,0.4,2.2,0.6,3.3c0.1,1.2,0.2,2.3,0.2,3.4C228.9,441.5,228.7,442.7,228.5,443.9z M391.7,433.1c-0.6,2.6-1.4,5.1-2.4,7.2
	c-1,2.2-2.2,4-3.5,5.4c-1.3,1.4-2.7,2.2-4.1,2.2c-1.6,0-3-0.3-4.2-1c-1.2-0.7-2.1-1.6-2.8-2.7c-0.7-1.1-1.2-2.5-1.6-4
	c-0.3-1.5-0.5-3.2-0.5-4.9c0-2.5,0.3-5.2,1-7.9c0.7-2.7,1.6-5.3,2.7-7.5c1.2-2.3,2.5-4.1,4.1-5.6c1.5-1.5,3.2-2.2,4.9-2.2
	c1.3,0,2.4,0.4,3.3,1.1c0.9,0.7,1.7,1.7,2.2,2.9c0.6,1.2,1,2.6,1.3,4.3c0.3,1.6,0.4,3.4,0.4,5.3C392.6,428,392.3,430.5,391.7,433.1z
	 M495.6,481.6c-0.6,2.1-1.3,4.3-2.1,6.5c-0.8,2.2-1.8,4.4-2.9,6.5c-1.1,2.1-2.3,4-3.6,5.7c-1.3,1.7-2.7,3-4.3,4
	c-1.6,1-3.2,1.5-5,1.5c-1.7,0-2.5-0.8-2.5-2.3c0-1,0.3-2.2,0.9-3.6s1.5-3,2.6-4.7c1.1-1.7,2.3-3.4,3.8-5.3c1.4-1.8,3-3.6,4.6-5.3
	c1.6-1.7,3.2-3.3,4.9-4.8c1.7-1.5,3.3-2.8,5-3.9C496.7,477.6,496.2,479.5,495.6,481.6z M502.6,430.4c-0.2,1.3-0.5,3-1.1,5
	c-0.6,2-1.3,3.9-2.2,5.8c-0.9,1.9-2,3.5-3.2,4.8c-1.2,1.3-2.6,2-4.2,2c-1,0-1.7-0.2-2.4-0.7c-0.6-0.5-1.1-1.1-1.5-1.9
	c-0.4-0.8-0.6-1.6-0.8-2.6c-0.1-1-0.2-2-0.2-3c0-1.8,0.2-3.8,0.7-5.9c0.5-2.1,1.2-4.2,2-6.2c0.9-2.1,1.9-4,3.1-5.9
	c1.2-1.9,2.5-3.5,4-5c1.4-1.5,3-2.6,4.6-3.5c1.6-0.9,3.3-1.3,5-1.3L502.6,430.4z"/>
</svg>
