<?xml version="1.0" encoding="utf-8"?>
<!-- Generator: Adobe Illustrator 18.1.1, SVG Export Plug-In . SVG Version: 6.00 Build 0)  -->
<svg version="1.1" id="Layer_1" xmlns="http://www.w3.org/2000/svg" xmlns:xlink="http://www.w3.org/1999/xlink" x="0px" y="0px"
	 viewBox="0 149.8 1008.2 266.2" enable-background="new 0 149.8 1008.2 266.2" xml:space="preserve">
<circle fill="#FFFFFF" cx="96.9" cy="282.4" r="96.2"/>
<path fill="#FFFFFF" d="M1007.9,299.4c-1.3-5.3-5.4-11.7-7.5-8.6c-3.9,5.6-7.4,10.3-10.6,14.1c-3.1,3.8-6,6.9-8.5,9.4
	c-2.6,2.5-4.9,4.5-6.9,6c-2.1,1.5-4,2.7-5.8,3.7c1.6-9.3,3-18.1,4.3-26.3c0.5-3.4,1.1-7,1.6-10.5s1-7,1.4-10.2
	c0.4-3.2,0.7-6.1,1-8.7c0.2-2.6,0.4-4.7,0.4-6.2c0-1.8-0.2-3.3-0.5-4.4c-0.3-1.1-0.8-1.9-1.4-2.5c-0.6-0.6-1.3-1-2-1.2
	c-0.8-0.2-1.6-0.3-2.5-0.3c-0.7,0-1.3,0-2,0c-0.7,0-1.4,0-2,0c-0.8,0-1.5,0-2.3-0.1c-0.7-0.1-1.5-0.3-2.2-0.6
	c-0.7-0.3-1.3-0.8-1.8-1.4c-0.5-0.7-1-1.3-1.5-2c-0.5-0.7-1.1-1.3-1.9-1.8c-0.8-0.5-1.8-0.8-3.2-0.8c-4.1,0-8.1,0.9-12.1,2.6
	c-3.9,1.8-7.7,4.1-11.3,7.1c-3.6,3-6.8,6.4-9.8,10.4c-3,4-5.6,8.2-7.8,12.7c-2.2,4.5-3.9,9.1-5.2,13.8c-1.1,4.3-1.7,8.5-1.8,12.5
	c-0.1,0.1-0.3,0.3-0.4,0.4c-1.4,1.1-2.8,2.1-4.1,3c-1.3,0.9-2.6,1.6-3.7,2.1c-1.2,0.5-2.2,0.8-3.1,0.8c-2,0-3.4-1.2-4.3-3.6
	c-0.9-2.4-1.4-5.4-1.4-9.1c0-2.2,0.1-4.6,0.4-7.2c0.3-2.6,0.6-5.3,1-7.9c0.4-2.7,0.9-5.3,1.4-7.8c0.5-2.6,1-4.9,1.4-7
	c0.4-2.1,0.8-4,1-5.5c0.3-1.5,0.4-2.6,0.4-3.3c0-4.4-0.9-7.8-2.6-10.3c-1.8-2.5-4.1-3.7-7.1-3.7c-3,0-5.7,0.6-8.1,1.8
	c-2.4,1.2-4.6,3.4-6.5,6.6c-0.4,0.7-1,1.8-1.9,3.3c-0.8,1.5-1.8,3.2-2.8,5.1c-1,1.9-2.1,3.9-3.3,6.1c-1.2,2.1-2.2,4.1-3.2,6
	c-1,1.9-1.9,3.6-2.7,5c-0.8,1.5-1.3,2.5-1.7,3.2h-1.8c0-0.4,0.1-1.2,0.3-2.4c0.2-1.2,0.4-2.6,0.7-4.3c0.3-1.6,0.5-3.4,0.8-5.3
	c0.3-1.9,0.6-3.8,0.8-5.6c0.3-1.8,0.5-3.5,0.7-5c0.2-1.5,0.3-2.7,0.3-3.6c0-3.3-0.6-5.9-1.9-7.8c-1.2-2-3.5-2.9-6.7-2.9
	s-5.7,0.9-7.6,2.8c-1.9,1.8-3.1,4.1-3.8,6.9c-0.8,3.5-1.7,7.7-2.6,12.6c-0.1,0.5-0.2,1.1-0.3,1.6c-1.2-1.4-2.5-2.7-3.8-4.1
	c-3.7-3.8-7.7-7.2-12-10.1c-4.3-2.9-8.9-5.3-13.8-7c-4.9-1.8-10.2-2.6-15.8-2.6c-6.6,0-12.5,1.2-17.8,3.6c-5.3,2.4-9.7,5.7-13.4,9.9
	c-3.7,4.2-6.5,9.1-8.4,14.8c-1.1,3.2-1.9,6.6-2.4,10.1c-2.6,1-5.1,1.5-7.5,1.5c-1,0-1.9-0.2-2.7-0.5c-0.9-0.4-1.6-1-2.3-1.8
	c-0.7-0.9-1.2-2-1.6-3.4c-0.4-1.4-0.6-3.2-0.6-5.3c0-1.2,0.1-2.8,0.4-4.7c0.3-1.9,0.6-3.8,1-5.8c0.4-2,0.7-3.9,1-5.7
	c0.3-1.8,0.4-3.2,0.4-4.2c0-1.3-0.2-2.5-0.7-3.5c-0.5-1-1.1-1.9-1.9-2.6c-0.8-0.7-1.7-1.3-2.8-1.6c-1.1-0.4-2.2-0.6-3.3-0.6
	c-3.3,0-6.1,0.9-8.6,2.6c-2.5,1.8-4.7,3.9-6.7,6.5c-2,2.6-3.7,5.3-5.2,8.2c-1.5,2.9-2.8,5.6-4,8h-1c-0.1-3-0.2-6.1-0.2-9.2
	c0-3.1,0-5.8,0-8c0-1.8,0-3.3-0.1-4.4c-0.1-1.1-0.3-1.9-0.8-2.4c-0.4-0.6-1.1-0.9-1.9-1.1c-0.9-0.1-2.1-0.2-3.6-0.2
	c-1.4,0-2.5,0.1-3.4,0.2c-0.9,0.1-1.7,0.4-2.3,0.9c-0.6,0.4-1.2,1.1-1.6,1.8c-0.5,0.8-1,1.8-1.4,3.1c-0.8,2-1.5,4.5-2.3,7.5
	c-0.8,3-1.5,6.4-2.3,10c-0.8,3.6-1.5,7.4-2.2,11.4c-0.5,2.9-0.9,5.7-1.3,8.5c-1.6,1.7-3.4,3.4-5.3,5.1c-2.2,1.9-4.5,3.6-6.9,5.3
	c-2.4,1.7-4.8,3.2-7.3,4.7c-2.5,1.4-4.8,2.7-7,3.7c-2.2,1-4.3,1.9-6.1,2.4c-1.9,0.6-3.4,0.9-4.7,0.9c-2,0-3.8-0.3-5.5-0.9
	c-1.6-0.6-3-1.6-4.1-3s-2-3.2-2.6-5.4c-0.6-2.2-0.9-4.9-0.9-8.1c0-1.2,0-2.6,0-4.1c0-1.5,0.1-3,0.1-4.6c0.1-1.6,0.1-3.2,0.2-4.9
	c0.1-1.6,0.1-3.2,0.2-4.8c0.2-3.6,0.4-7.2,0.6-10.9c1.5-1.8,3.1-3.9,4.9-6.2c1.8-2.3,3.5-4.6,5.2-7h34.2c1.4,0,2.7-0.7,3.9-2
	c1.2-1.3,1.8-3,1.8-5.1c0-1.7-0.3-3.1-0.8-4.3c-0.5-1.1-1.4-1.7-2.6-1.8c-1-0.1-2.3-0.1-3.8-0.2c-1.5-0.1-3.2-0.1-5-0.2
	c-1.8-0.1-3.6-0.1-5.5-0.2c-1.9-0.1-3.7-0.2-5.3-0.2c-1.6-0.1-3.1-0.1-4.3-0.1c-1.2,0-2.1-0.1-2.7-0.1c2.1-3.4,4.2-6.8,6.1-10.2
	c1.9-3.4,3.6-6.8,5-10.2c1.4-3.4,2.5-6.6,3.4-9.9c0.8-3.2,1.2-6.3,1.2-9.2c0-3.4-0.4-6.7-1.2-9.9c-0.8-3.2-1.9-5.9-3.4-8.3
	c-1.5-2.4-3.3-4.3-5.4-5.7c-2.1-1.4-4.4-2.1-7-2.1c-4,0-7.8,1.8-11.4,5.3c-3.6,3.5-7,8.2-10,14.1c-3.1,5.8-5.8,12.5-8.3,20
	c-2.5,7.5-4.5,15.3-6.1,23.3c-0.6,0.1-1.7,0.2-3.2,0.1c-1.6,0-3.4-0.1-5.3-0.1c-2-0.1-4.1-0.1-6.2,0c-2.2,0-4.2,0.2-6,0.5
	c-1.8,0.3-3.3,0.8-4.5,1.4c-1.2,0.6-1.7,1.5-1.7,2.7c0,0.5,0,1.2,0.1,1.9c0.1,0.7,0.3,1.5,0.6,2.1c0.4,0.7,0.9,1.3,1.7,1.8
	c0.8,0.5,1.9,0.8,3.3,1c3.2,0.4,5.7,0.7,7.3,0.9c1.7,0.2,3.1,0.5,4.2,0.7c1.1,0.2,2.1,0.4,3.1,0.6c1,0.2,2.4,0.4,4.1,0.7
	c-0.5,4-1,8-1.2,12c-0.3,4-0.4,7.8-0.4,11.4c0,8.2,0.5,15.6,1.4,22.3c-1.4,0.9-2.8,1.7-4.2,2.5c-2.8,1.5-5.6,2.9-8.2,4.1
	c-2.7,1.2-5.2,2.4-7.7,3.6c-2.5,1.2-4.8,2.4-6.9,3.9c0-3.8-0.1-7.1-0.4-9.9s-0.6-5.3-1.1-7.4c-0.4-2.1-0.9-4-1.4-5.7
	c-0.5-1.6-0.9-3.2-1.4-4.6c-0.4-1.5-0.8-2.9-1.1-4.5c-0.3-1.5-0.4-3.2-0.4-5c0.2-0.7,0.9-1.6,2.1-3c1.2-1.3,2.5-2.8,3.9-4.4
	c1.4-1.6,2.6-3.3,3.7-5c1.1-1.7,1.7-3.3,1.7-4.7c0-0.7-0.1-1.6-0.2-2.5c-0.1-1-0.5-1.9-1.2-2.8c-0.7-0.9-1.8-1.6-3.4-2.3
	c-1.5-0.6-3.7-0.9-6.6-0.9c-1.7,0-3.3,0.3-4.7,0.8c-1.4,0.5-2.7,1.2-3.8,2c-1.2,0.8-2.2,1.7-3.2,2.7c-1,1-1.8,2-2.6,3.1
	c-3.8,4.7-6.9,8.7-9.3,11.9c-2.4,3.2-4.4,5.9-6.1,8.1c-1.7,2.2-3.1,4.1-4.3,5.7c-1.2,1.6-2.6,3.2-4.1,4.8c-1.5,1.6-3.3,3.3-5.3,5.2
	c-2.1,1.9-4.8,4.3-8.1,7.1c-0.5,0.4-1.2,1-2.1,1.7c-1,0.7-1.9,1.5-2.8,2.5c-0.9,1-1.8,2-2.5,3.2c-0.5,0.9-0.8,1.8-1,2.7
	c-1.4,0.8-2.7,1.4-4,2c-1.4,0.5-2.7,0.8-3.9,0.8c-1.2,0-2.2-1-3-3c-0.8-2-1.2-4.6-1.2-7.8c0-4.1,0.2-8,0.6-11.6
	c0.4-3.7,0.9-7.3,1.4-10.8c0.5-3.6,1-7.2,1.4-10.9c0.4-3.7,0.6-7.6,0.6-11.7c0-2.7-1-4.7-2.9-6.2c-1.9-1.5-4.3-2.2-7.1-2.2
	c-2.5,0-4.6,0.8-6.3,2.4c-1.7,1.6-3.4,3.6-5.2,6c-1.8,2.4-3.7,5.3-5.7,8.5c-2,3.2-4,6.3-5.8,9.2c-1.8,2.9-3.3,5.4-4.6,7.4
	c-1.2,2-1.9,3.2-2,3.3l-1-1.1c0-0.1,0-0.4,0.1-0.7c0.1-0.4,0.2-1.2,0.5-2.6c0.4-2,0.9-3.9,1.3-5.7c0.5-1.9,0.9-3.8,1.4-5.7
	c0.4-2,0.8-4,1.1-6.1c0.3-2.1,0.4-4.3,0.4-6.6c0-2.7-0.9-4.7-2.7-6.2c-1.8-1.5-3.9-2.2-6.4-2.2c-2.7,0-5,0.8-6.9,2.4
	c-1.9,1.6-3.8,3.6-5.5,6.1c-1.8,2.4-3.7,5.2-5.6,8.4c-2,3.2-3.8,6.2-5.5,9.1c-1.7,2.9-3.1,5.4-4.3,7.5c-1.2,2.1-1.8,3.2-1.9,3.4
	l-1-1.1c0.6-3.7,1.2-7.4,1.7-10.9c0.2-1.5,0.5-3,0.7-4.6c0.2-1.6,0.4-3.1,0.6-4.6c0.2-1.5,0.3-2.9,0.4-4.2c0.1-1.3,0.1-2.5,0.1-3.5
	c0-1.8-0.1-3.3-0.2-4.4c-0.1-1.1-0.5-1.9-1.1-2.4c-0.6-0.6-1.6-0.9-2.8-1.1c-1.3-0.1-3-0.2-5.3-0.2c-1.5,0-2.7,0.1-3.7,0.3
	c-0.9,0.2-1.8,0.6-2.4,1.2c-0.7,0.6-1.3,1.5-1.8,2.6s-1.1,2.6-1.7,4.5c-0.6,1.8-1.2,4.2-2,7.1c-0.7,2.9-1.4,6.1-2.1,9.6
	c-0.6,3.3-1.3,6.7-1.8,10.3c-1.5,0.8-3.2,1.6-4.9,2.3c-2.8,1.2-5.6,1.8-8.3,1.8c-1,0-1.9-0.2-2.7-0.5c-0.9-0.4-1.6-1-2.3-1.8
	c-0.7-0.9-1.2-2-1.6-3.4c-0.4-1.4-0.6-3.2-0.6-5.3c0-1.2,0.1-2.8,0.4-4.7c0.3-1.9,0.6-3.8,1-5.8c0.4-2,0.7-3.9,1-5.7
	c0.3-1.8,0.4-3.2,0.4-4.2c0-1.3-0.2-2.5-0.7-3.5c-0.5-1-1.1-1.9-1.9-2.6c-0.8-0.7-1.7-1.3-2.8-1.6c-1.1-0.4-2.2-0.6-3.3-0.6
	c-3.3,0-6.1,0.9-8.6,2.6c-2.5,1.8-4.7,3.9-6.7,6.5c-2,2.6-3.7,5.3-5.2,8.2c-1.5,2.9-2.8,5.6-4,8h-1c-0.1-3-0.2-6.1-0.2-9.2
	c0-3.1,0-5.8,0-8c0-1.8,0-3.3-0.1-4.4c-0.1-1.1-0.3-1.9-0.8-2.4c-0.4-0.6-1.1-0.9-1.9-1.1c-0.9-0.1-2.1-0.2-3.6-0.2
	c-1.4,0-2.5,0.1-3.4,0.2c-0.9,0.1-1.7,0.4-2.3,0.9c-0.6,0.4-1.2,1.1-1.6,1.8c-0.5,0.8-0.9,1.8-1.4,3.1c-0.8,2-1.5,4.5-2.3,7.5
	c-0.8,3-1.5,6.4-2.3,10c-0.8,3.6-1.5,7.4-2.2,11.4c-0.7,4-1.3,7.9-1.8,11.8c-0.2,1.2-0.3,2.4-0.4,3.6c-1.3,1.5-2.5,3-3.8,4.4
	c-1.2,1.4-2.6,2.7-4,4c-1.4,1.3-2.8,2.4-4.2,3.4c-1.4,1-2.8,1.8-4.1,2.4c-1.4,0.6-2.7,0.9-3.9,0.9c-1.7,0-2.7-0.8-3.2-2.4
	c-0.5-1.6-0.8-3.8-0.8-6.5c0-3.3,0.3-6.7,0.9-10.4c0.6-3.6,1.2-7.3,2-10.9c0.7-3.7,1.4-7.2,2-10.7c0.6-3.5,0.9-6.6,0.9-9.5
	c0-1.8-0.2-3.3-0.5-4.4c-0.3-1.1-0.8-1.9-1.4-2.5c-0.6-0.6-1.3-1-2-1.2c-0.8-0.2-1.6-0.3-2.5-0.3c-0.7,0-1.3,0-2,0c-0.7,0-1.4,0-2,0
	c-0.8,0-1.5,0-2.3-0.1c-0.7-0.1-1.5-0.3-2.2-0.6c-0.7-0.3-1.3-0.8-1.8-1.4c-0.5-0.7-1-1.3-1.5-2c-0.5-0.7-1.1-1.3-1.9-1.8
	c-0.8-0.5-1.8-0.8-3.2-0.8c-4.1,0-8.1,0.9-12.1,2.6c-3.9,1.8-7.7,4.1-11.3,7.1c-3.6,3-6.8,6.4-9.8,10.4c-3,4-5.6,8.2-7.8,12.7
	c-2.2,4.5-3.9,9.1-5.2,13.8c-1.2,4.7-1.9,9.3-1.9,13.7c0,3.9,0.6,7.4,1.9,10.5c1.2,3.1,2.9,5.8,5,7.9c2.1,2.2,4.5,3.8,7.2,5
	c2.7,1.2,5.5,1.7,8.3,1.7c2.7,0,5.3-0.4,8-1.3c2.7-0.9,5.2-2,7.7-3.4c2.5-1.4,4.7-3,6.8-4.7c2.1-1.7,3.8-3.4,5.3-5.1
	c1.9,4.8,4.2,8.5,6.8,11c2.6,2.5,5.9,3.8,9.8,3.8c3.3,0,6.5-0.8,9.8-2.4c3.3-1.6,6.3-3.6,9.2-5.9c1.1-0.9,2.2-1.9,3.3-2.9
	c0.3,1.8,0.7,3.5,1.4,5c0.8,1.8,1.9,3.1,3.4,4.2c1.5,1,3.4,1.6,5.9,1.6c1.1,0,2-0.2,2.9-0.6c0.9-0.4,1.7-1.1,2.5-2
	c0.8-0.9,1.5-2.2,2.3-3.7c0.7-1.5,1.5-3.4,2.4-5.7l15.9-44.4h1.4c0.5,3.7,1.1,7.4,1.9,11.1c0.8,3.7,2,6.9,3.6,9.9
	c1.6,2.9,3.8,5.3,6.5,7.1c2.7,1.8,6.3,2.7,10.8,2.7c2.5,0,4.9-0.4,7.3-1.1c2-0.6,4-1.4,5.9-2.3c-0.1,0.6-0.1,1.2-0.2,1.8
	c-0.3,3.3-0.4,6.2-0.4,8.6c0,2.4,0.1,4.7,0.4,6.9c0.3,2.2,0.8,4.2,1.6,6c0.8,1.8,1.9,3.1,3.4,4.2c1.5,1,3.4,1.6,5.9,1.6
	c1.9,0,3.6-0.4,5.2-1.3c1.6-0.9,3-2.5,4.1-4.9c4.1-8.3,7.4-15.1,10-20.6c2.6-5.5,4.7-10,6.4-13.4c1.7-3.4,3-6.1,3.9-7.8
	c0.9-1.8,1.7-3.1,2.4-4h1.3c-1,5.5-1.8,10.6-2.4,15.3c-0.3,2-0.6,4.1-0.9,6.1c-0.3,2-0.6,4-0.8,5.8c-0.2,1.8-0.4,3.5-0.5,4.9
	c-0.1,1.4-0.2,2.5-0.2,3.3c0,1.8,0.1,3.7,0.3,5.7c0.2,2,0.6,3.8,1.2,5.4c0.6,1.6,1.5,3,2.6,4c1.1,1,2.6,1.6,4.5,1.6
	c2.5,0,4.7-0.4,6.6-1.3c1.9-0.9,3.6-2.5,5.2-5l18.1-46h1.3c-0.5,4.3-0.8,8.5-1.1,12.7c-0.3,4.2-0.4,8.1-0.4,11.9c0,4,0.2,7.7,0.6,11
	c0.4,3.4,1,6.3,1.9,8.8c0.9,2.5,2.1,4.4,3.5,5.8c1.5,1.4,3.2,2.1,5.4,2.1c4.3,0,8.2-0.6,11.7-1.7c3.4-1.2,6.6-2.6,9.5-4.5
	c2.9-1.8,5.6-3.8,8.2-6.1c0.5-0.4,1-0.8,1.5-1.2c0.4,1.7,1.1,3.3,2,4.7c1.4,2.3,3.3,4.1,5.6,5.5c2.3,1.4,4.9,2.4,8,3.1
	c3,0.7,6.3,1,9.8,1c4.9,0,10-0.6,15.4-1.6c5.4-1.1,10.8-2.6,16.1-4.5c5.3-1.9,10.4-4.1,15.2-6.6c4.7-2.4,8.8-5,12.4-7.7
	c0.5,1.3,1,2.6,1.5,3.8c2.3,5.1,5.2,9.1,8.6,11.8c3.4,2.7,7.4,4.1,11.9,4.1c2.2,0,4.6-0.4,7.3-1.2c2.7-0.8,5.8-2.1,9.3-3.7
	c3.5-1.7,7.4-3.7,11.9-6.2c3.7-2.1,7.9-4.5,12.5-7.1c0,2.3,0.1,4.5,0.4,6.6c0.3,2.2,0.8,4.2,1.6,6c0.8,1.8,1.9,3.1,3.4,4.2
	c1.5,1,3.4,1.6,5.9,1.6c1.1,0,2-0.2,2.9-0.6c0.9-0.4,1.7-1.1,2.5-2c0.8-0.9,1.5-2.2,2.3-3.7c0.7-1.5,1.5-3.4,2.4-5.7l15.9-44.4h1.4
	c0.5,3.7,1.1,7.4,1.9,11.1c0.8,3.7,2,6.9,3.6,9.9c1.6,2.9,3.8,5.3,6.5,7.1c2.7,1.8,6.3,2.7,10.8,2.7c2.5,0,4.9-0.4,7.3-1.1
	c1.2-0.4,2.3-0.8,3.4-1.2c0.2,1,0.4,2.1,0.6,3.1c1.1,4.6,2.8,8.8,5.2,12.5c2.4,3.7,5.4,6.7,9.1,8.9c3.7,2.3,8.2,3.4,13.4,3.4
	c3.6,0,7-0.6,10.2-1.9c3.2-1.2,6.2-2.9,8.9-5.1c2.7-2.1,5.1-4.7,7.2-7.6c2.1-2.9,3.9-6,5.3-9.3c1.5-3.3,2.6-6.8,3.3-10.3
	c0.8-3.6,1.2-7.1,1.2-10.6c0-3.5-0.4-7.2-1.3-11c-0.9-3.8-2.2-7.5-3.9-10.9l0.7-1c2.1,1.4,4.7,3.2,7.7,5.3c3,2.1,6,4.3,9,6.7
	c2.9,2.3,5.7,4.6,8.3,6.9c0,0.3-0.1,0.6-0.1,0.9c-0.7,5.3-1.3,10.5-1.8,15.7c-0.5,5.1-0.7,9.7-0.7,13.6c0,2.4,0.1,4.7,0.4,6.9
	c0.3,2.2,0.8,4.2,1.6,6c0.8,1.8,1.9,3.1,3.4,4.2c1.5,1,3.4,1.6,5.9,1.6c2,0,3.7-0.4,5.2-1.3c1.5-0.9,2.8-2.5,4-5l23.3-46.3h1.4
	c-0.7,4.8-1.3,9.2-1.8,13.3c-0.5,4.1-0.7,8-0.7,11.5c0,9.1,1.1,16,3.3,20.7c2.2,4.7,5,7.1,8.2,7.1c3.3,0,6.4-0.5,9.3-1.4
	c3-0.9,5.8-2.1,8.5-3.6c2.7-1.5,5.4-3.1,7.9-4.9c0.2-0.2,0.4-0.3,0.7-0.5c0.9,1.4,1.8,2.7,2.9,3.8c2.1,2.2,4.5,3.8,7.2,5
	c2.7,1.2,5.5,1.7,8.3,1.7c3.3,0,6.6-0.9,10.1-2.6c3.5-1.8,6.8-4.1,10-6.9l-2.4,8.3c-4.3,3.5-8.5,7.2-12.7,11
	c-4.2,3.9-8.2,7.8-12,11.8c-3.8,4-7.4,8-10.6,12c-3.3,4-6.1,7.9-8.5,11.6c-2.4,3.7-4.2,7.2-5.6,10.6c-1.4,3.4-2,6.4-2,9
	c0,3.9,0.7,6.9,2,9.3c1.3,2.3,3,4.1,4.9,5.3s4.2,2.1,6.5,2.5c2.3,0.4,4.5,0.6,6.5,0.6c5.1,0,9.8-0.9,14-2.6c4.2-1.8,8-4.2,11.4-7.3
	c3.4-3.1,6.5-6.9,9.2-11.3c2.7-4.4,5.1-9.2,7.2-14.5c2.1-5.3,3.9-10.9,5.5-16.9c1.5-6,2.9-12.2,4-18.6c5.8-3.6,11.2-7.2,16.3-11
	c2.1-1.6,4.3-3.3,6.5-5.1c2.2-1.8,4.4-3.7,6.4-5.6c2-1.9,3.9-3.9,5.6-5.8c1.7-1.9,3.1-3.8,4.1-5.7
	C1005.9,308.3,1009.2,304.7,1007.9,299.4z M630.6,221.4c1.3-5.1,2.6-9.8,4.1-14c1.5-4.2,3-7.7,4.5-10.5c1.6-2.7,3.1-4.1,4.7-4.1
	c1.1,0,2,0.2,2.6,0.7c0.6,0.5,1.1,1.1,1.4,1.8c0.3,0.7,0.5,1.5,0.6,2.3c0.1,0.8,0.1,1.5,0.1,2.2c0,1.9-0.5,4.3-1.5,7.3
	c-1,3-2.3,6.2-3.8,9.6c-1.5,3.4-3.3,6.9-5.2,10.4c-1.9,3.5-3.8,6.8-5.6,9.8c-0.9-0.1-1.9-0.2-2.8-0.3c-0.9-0.1-1.8-0.2-2.7-0.3
	C628.2,231.4,629.3,226.5,630.6,221.4z M289,290.2c-0.2,1.9-0.8,4.3-1.6,7.1c-0.8,2.8-1.9,5.6-3.2,8.3c-1.3,2.7-2.8,5-4.6,6.9
	c-1.8,1.9-3.8,2.8-6,2.8c-1.4,0-2.5-0.3-3.4-1c-0.9-0.7-1.6-1.6-2.1-2.7c-0.5-1.1-0.9-2.3-1.1-3.7c-0.2-1.4-0.3-2.8-0.3-4.3
	c0-2.6,0.3-5.4,1-8.4c0.7-3,1.6-5.9,2.9-8.9c1.2-2.9,2.7-5.7,4.5-8.4c1.7-2.7,3.6-5,5.7-7.1c2-2.1,4.2-3.7,6.5-4.9
	c2.3-1.2,4.7-1.8,7.1-1.8L289,290.2z M560.1,309.5c-0.4,1.7-1,3.2-1.9,4.5s-2.1,2.3-3.6,3.1c-1.5,0.8-3.4,1.2-5.7,1.2
	c-1.9,0-3.6-0.4-5.1-1.3c-1.5-0.9-2.8-1.9-3.9-2.9c-1.1-1.1-2.1-2-3-2.9c-0.9-0.9-1.6-1.3-2.4-1.3l22.9-22.8c0.3,1,0.6,2.1,1,3.4
	c0.4,1.3,0.7,2.8,1.1,4.3c0.3,1.5,0.6,3.1,0.8,4.8c0.2,1.7,0.3,3.3,0.3,4.9C560.7,306,560.5,307.8,560.1,309.5z M792.7,294.1
	c-0.9,3.8-2,7.2-3.4,10.3s-3.1,5.7-5,7.7c-1.9,2-3.9,3.1-5.9,3.1c-2.3,0-4.3-0.5-6-1.5c-1.7-1-3-2.3-4-3.9c-1-1.6-1.8-3.5-2.2-5.7
	c-0.5-2.2-0.7-4.5-0.7-7c0-3.6,0.5-7.4,1.4-11.3c0.9-3.9,2.3-7.5,3.9-10.7c1.7-3.2,3.6-5.9,5.8-8c2.2-2.1,4.5-3.1,6.9-3.1
	c1.8,0,3.4,0.5,4.7,1.5c1.3,1,2.4,2.4,3.2,4.1c0.8,1.7,1.5,3.8,1.9,6.1c0.4,2.3,0.6,4.9,0.6,7.6C794,286.8,793.6,290.4,792.7,294.1z
	 M940.9,363.3c-0.8,3-1.8,6.1-3,9.3c-1.2,3.2-2.6,6.3-4.1,9.3c-1.5,3-3.3,5.7-5.1,8.1c-1.9,2.4-3.9,4.3-6.1,5.7
	c-2.2,1.5-4.6,2.2-7.1,2.2c-2.4,0-3.6-1.1-3.6-3.3c0-1.4,0.4-3.1,1.3-5.2c0.9-2.1,2.1-4.3,3.7-6.7c1.5-2.4,3.3-4.9,5.4-7.5
	c2-2.6,4.2-5.2,6.5-7.6c2.3-2.5,4.6-4.8,7-6.9c2.4-2.1,4.8-4,7.1-5.5C942.4,357.5,941.8,360.2,940.9,363.3z M950.9,290.2
	c-0.2,1.9-0.8,4.3-1.6,7.1c-0.8,2.8-1.9,5.6-3.2,8.3c-1.3,2.7-2.8,5-4.6,6.9c-1.8,1.9-3.8,2.8-6,2.8c-1.4,0-2.5-0.3-3.4-1
	c-0.9-0.7-1.6-1.6-2.1-2.7c-0.5-1.1-0.9-2.3-1.1-3.7c-0.2-1.4-0.3-2.8-0.3-4.3c0-2.6,0.3-5.4,1-8.4c0.7-3,1.6-5.9,2.9-8.9
	c1.2-2.9,2.7-5.7,4.5-8.4c1.7-2.7,3.6-5,5.7-7.1c2-2.1,4.2-3.7,6.5-4.9c2.3-1.2,4.7-1.8,7.1-1.8L950.9,290.2z"/>
<circle fill="#FFD300" cx="96.9" cy="282.4" r="89.3"/>
<path fill="#303F35" d="M128.6,301.3c1-1.2,2.1-2.3,3.1-3.5c2.6-3.4,5-7,7.7-10.3c13.9-17,32.6-16.3,46.7-7.6
	c-1.3-48.2-40.7-86.8-89.2-86.8c-14.3,0-27.9,3.4-39.9,9.4c-29.3,14.6-49.4,44.9-49.4,79.9c0,7.2,0.9,14.2,2.5,21
	c9.4,39.2,44.7,68.3,86.8,68.3c13.4,0,26.1-3,37.5-8.3c-3.2-6.3-5.7-13.3-7.4-21c3.9,0.7,7.1,0.8,10,1.8c3.9,1.3,7.6,3.1,11.2,5
	c1.5,0.8,2.7,2.1,3.8,3.4c1.6-1.2,3.1-2.5,4.6-3.9c-0.2-0.3-0.4-0.5-0.5-0.8c-4.7-7.8-9.4-15.5-14.2-23.2c-3-4.8-6.5-9.2-11-10.9
	c-1.5,1.8-2.2,3.2-3.3,3.9c-15.7,10.3-32.1,13.1-49.7,5c-0.8-0.4-1.6-0.5-2.5-0.7c-0.3-0.1-0.6,0.1-1.6,0.4
	c11.4,7.9,23.4,10.6,36.4,7.3c3.9-1,6.3-0.6,8.9,2.2c2.3,2.5,5.1,4.5,8,6.9c-23.5,8.4-45.8,5-68.4-4.3c7.1-1.6,13.5-3,20-4.4
	c0-0.4-0.1-0.7-0.1-1.1c-4,0.5-8,1.1-12,1.3c-7.3,0.3-14.7,0.7-22.1,0.5c-7-0.2-8.8-1.8-7.9-8.8c1.2-8.7,3-17.6,6-25.9
	c6.5-18.1,17.1-33.8,30.3-47.9c4.6-4.8,8.4-10.4,12.6-15.6c1-1.2,2.1-2.3,3.4-3.1c6.2-3.9,12.6-7.4,18.7-11.5
	c4.6-3.1,9.2-4.1,14.5-2.2c3.2,1.2,6.6,1.8,9.8,3c1.3,0.5,2.7,1.5,3.3,2.6c2.4,5.3,4.7,10.6,6.8,16.1c1.1,2.9-4.1,8.4-7.6,8.2
	c-4.9-0.2-9.8-2.2-14.8-0.4c-0.9,0.3-2.2-0.5-3.5-0.9c8.3-7.2,8.7-8.6,4.3-15.5c1.8,4.6,0.7,8.8-2.6,11.9c-2.1,1.9-5.3,2.4-8.1,3.6
	c-0.5-0.6-0.9-1.2-1.4-1.8c1.4-2.7,2.9-5.4,4.4-8.2c-0.3-0.2-1-0.7-1.8-1.2c-2.8,11.4-11,15.6-21.6,11.7c2.2,1.5,4.3,3,6.7,4.6
	c-2.2,3.2-4.5,6.4-6.5,9.7c-1.9,3.2-3.5,6.5-5.5,10.3c-0.7-3.6-1.3-6.4-1.9-9.3c-0.1,0-0.3,0.1-0.4,0.1c0,7.7,0,15.3,0,23.4
	c1.6-4.5,3.1-8.6,4.6-12.8c0.3,0.1,0.6,0.2,0.9,0.3c0.5,4.5,1.3,9,1.4,13.5c0,1.5-1.5,3.1-2.6,4.5c-3.9,4.8-7.8,9.6-11.8,14.4
	c0.5,0.5,1,0.9,1.6,1.4c1.4-1.4,2.9-2.9,4.3-4.3c1.4-1.5,2.8-3,4.2-4.5c7.3-7.3,15.1-13.3,26.2-13.6c8.5-0.2,15.7,2.8,22.5,7.9
	c-1.8,3.5-3.5,6.9-5.3,10.3C127.9,300.7,128.3,301,128.6,301.3z M118.8,327c4.8-2.9,9.2-5.6,14.1-8.6c6.6,5.7,9,14.2,13.2,22.7
	C134.9,339,126.9,333.4,118.8,327z M103.1,249.4c4.3-5.1,4.7-5.2,13.7-2C115.6,253.1,111.3,253.7,103.1,249.4z M125.2,252.5
	c-1.1,1-2.1,1.9-3.2,2.8c-1.2-1.7-2.8-3.3-3.5-5.3c-0.2-0.5,2.4-2.9,3.7-2.9c4,0.2,8,1.1,12.5,1.8
	C133.1,253.1,127.5,254.8,125.2,252.5z"/>
</svg>
